g m_glasses_divingsuit_b
v -3.9904861 92.94059 3.847429
v -4.127752 93.46957 3.8252506
v -2.502994 93.68933 4.420549
v -3.7290065 92.29167 3.905364
v -4.1818914 93.987816 3.8040297
v -3.5528023 92.03145 3.9533532
v -4.1844363 94.45082 3.829607
v -3.2265391 91.97265 4.0484495
v -3.9669318 94.82642 3.8996136
v -2.7881436 92.097595 4.181301
v -3.6031165 94.89657 4.0087075
v -2.3497484 92.22298 4.294364
v -3.1980371 94.80538 4.1377296
v -1.8215375 92.428154 4.4532256
v -2.7929573 94.71418 4.2667513
v -1.3254223 92.62133 4.582085
v -2.2128744 94.55448 4.402275
v -1.0217083 92.86059 4.6942573
v -1.6416078 94.39479 4.537799
v -0.8507434 93.01565 4.749823
v -1.0295123 94.14053 4.693686
v -0.763183 93.2791 4.7732973
v -0.8782415 94.05006 4.725688
v -0.7849102 93.683 4.7738895
v 3.9904861 92.94059 3.847429
v 2.502994 93.68933 4.420549
v 4.127752 93.46957 3.8252506
v 3.7290065 92.29167 3.905364
v 4.1818914 93.987816 3.8040297
v 3.5528023 92.03145 3.9533532
v 4.1844363 94.45082 3.829607
v 3.2265391 91.97265 4.0484495
v 3.9669318 94.82642 3.8996136
v 2.7881436 92.097595 4.181301
v 3.6031165 94.89657 4.0087075
v 2.3497484 92.22298 4.294364
v 3.1980371 94.80538 4.1377296
v 1.8215375 92.428154 4.4532256
v 2.7929573 94.71418 4.2667513
v 1.3254223 92.62133 4.582085
v 2.2128744 94.55448 4.402275
v 1.0217083 92.86059 4.6942573
v 1.6416078 94.39479 4.537799
v 0.8507434 93.01565 4.749823
v 1.0295123 94.14053 4.693686
v 0.763183 93.2791 4.7732973
v 0.8782415 94.05006 4.725688
v 0.7849102 93.683 4.7738895
vt 0.80847454 0.71094686
vt 0.81485844 0.74183816
vt 0.71481156 0.7495903
vt 0.79495126 0.67279094
vt 0.8167231 0.77185297
vt 0.78516805 0.65729207
vt 0.814997 0.79853094
vt 0.76577353 0.6529063
vt 0.80073905 0.8194873
vt 0.7390315 0.65873146
vt 0.77867883 0.822446
vt 0.71256196 0.6645084
vt 0.7544806 0.8159814
vt 0.680189 0.67473555
vt 0.73026735 0.80950004
vt 0.6500886 0.6843225
vt 0.6963402 0.7986963
vt 0.63085437 0.6973144
vt 0.6629666 0.7877511
vt 0.62008435 0.7057555
vt 0.6274059 0.7711422
vt 0.61407316 0.7206513
vt 0.6187838 0.7654722
vt 0.6140667 0.74397063
vt 0.80847454 0.71094686
vt 0.71481156 0.7495903
vt 0.81485844 0.74183816
vt 0.79495126 0.67279094
vt 0.8167231 0.77185297
vt 0.78516805 0.65729207
vt 0.814997 0.79853094
vt 0.76577353 0.6529063
vt 0.80073905 0.8194873
vt 0.7390315 0.65873146
vt 0.77867883 0.822446
vt 0.71256196 0.6645084
vt 0.7544806 0.8159814
vt 0.680189 0.67473555
vt 0.73026735 0.80950004
vt 0.6500886 0.6843225
vt 0.6963402 0.7986963
vt 0.63085437 0.6973144
vt 0.6629666 0.7877511
vt 0.62008435 0.7057555
vt 0.6274059 0.7711422
vt 0.61407316 0.7206513
vt 0.6187838 0.7654722
vt 0.6140667 0.74397063
vn -0.33693984 -0.050265756 0.9401834
vn -0.3412603 -0.022464307 0.9397003
vn -0.26855883 -0.01668709 0.96311873
vn -0.33565086 -0.05225503 0.940536
vn -0.34899944 -0.028284142 0.936696
vn -0.31390595 -0.06809995 0.9470086
vn -0.33836004 -0.016982755 0.9408635
vn -0.28262824 -0.08791962 0.9551918
vn -0.31866723 0.02384401 0.9475667
vn -0.24818164 -0.100360006 0.9635008
vn -0.29547343 0.05609261 0.9537028
vn -0.23280032 -0.107505865 0.96656436
vn -0.29039627 0.061143465 0.95495105
vn -0.2313604 -0.0999377 0.9677214
vn -0.25577754 0.072301686 0.9640282
vn -0.23599535 -0.1142479 0.9650149
vn -0.20475447 0.089249864 0.97473586
vn -0.24075703 -0.11191097 0.96411204
vn -0.20825379 0.0924488 0.97369576
vn -0.21307151 -0.04555463 0.975974
vn -0.1997336 0.060189165 0.97799987
vn -0.2022156 -0.015603046 0.97921675
vn -0.19931686 0.07103449 0.9773571
vn -0.2012859 0.025445418 0.979202
vn 0.33694026 -0.050265852 0.94018334
vn 0.26855886 -0.016687104 0.96311873
vn 0.34126255 -0.022464504 0.9396995
vn 0.33565143 -0.05225523 0.94053584
vn 0.34899879 -0.028283969 0.9366963
vn 0.31390715 -0.06810012 0.9470083
vn 0.33836022 -0.016982567 0.9408634
vn 0.2826268 -0.08791935 0.9551923
vn 0.3186682 0.02384418 0.9475664
vn 0.24818158 -0.10036016 0.9635007
vn 0.29547402 0.056092903 0.9537026
vn 0.2328004 -0.10750602 0.96656424
vn 0.2904 0.061144393 0.95494986
vn 0.2313604 -0.09993772 0.9677214
vn 0.25577733 0.07230167 0.9640282
vn 0.23599394 -0.11424709 0.96501535
vn 0.20475458 0.089249864 0.97473586
vn 0.24075814 -0.111911066 0.96411175
vn 0.20825209 0.09244807 0.97369623
vn 0.21307652 -0.045555484 0.9759729
vn 0.19973798 0.0601894 0.977999
vn 0.20221592 -0.015603106 0.97921664
vn 0.19931822 0.0710346 0.97735685
vn 0.20128381 0.025445515 0.97920245
g m_glasses_divingsuit_b_0
f 3/3/3 2/2/2 1/1/1
f 3/3/3 1/1/1 4/4/4
f 3/3/3 5/5/5 2/2/2
f 3/3/3 4/4/4 6/6/6
f 3/3/3 7/7/7 5/5/5
f 3/3/3 6/6/6 8/8/8
f 3/3/3 9/9/9 7/7/7
f 3/3/3 8/8/8 10/10/10
f 3/3/3 11/11/11 9/9/9
f 3/3/3 10/10/10 12/12/12
f 3/3/3 13/13/13 11/11/11
f 3/3/3 12/12/12 14/14/14
f 3/3/3 15/15/15 13/13/13
f 3/3/3 14/14/14 16/16/16
f 3/3/3 17/17/17 15/15/15
f 3/3/3 16/16/16 18/18/18
f 3/3/3 19/19/19 17/17/17
f 3/3/3 18/18/18 20/20/20
f 3/3/3 21/21/21 19/19/19
f 3/3/3 20/20/20 22/22/22
f 3/3/3 23/23/23 21/21/21
f 3/3/3 22/22/22 24/24/24
f 3/3/3 24/24/24 23/23/23
f 27/27/27 26/26/26 25/25/25
f 25/25/25 26/26/26 28/28/28
f 29/29/29 26/26/26 27/27/27
f 28/28/28 26/26/26 30/30/30
f 31/31/31 26/26/26 29/29/29
f 30/30/30 26/26/26 32/32/32
f 33/33/33 26/26/26 31/31/31
f 32/32/32 26/26/26 34/34/34
f 35/35/35 26/26/26 33/33/33
f 34/34/34 26/26/26 36/36/36
f 37/37/37 26/26/26 35/35/35
f 36/36/36 26/26/26 38/38/38
f 39/39/39 26/26/26 37/37/37
f 38/38/38 26/26/26 40/40/40
f 41/41/41 26/26/26 39/39/39
f 40/40/40 26/26/26 42/42/42
f 43/43/43 26/26/26 41/41/41
f 42/42/42 26/26/26 44/44/44
f 45/45/45 26/26/26 43/43/43
f 44/44/44 26/26/26 46/46/46
f 47/47/47 26/26/26 45/45/45
f 46/46/46 26/26/26 48/48/48
f 48/48/48 26/26/26 47/47/47
