g beachGrass01Geo
v -0.44600308 1.6477125 -0.051150918
v -0.30549026 1.9571452 -0.048632383
v 0.9137905 1.9571452 -0.048632383
v 0.77327776 1.6477125 -0.051150918
v -0.55190015 1.3346484 -0.05753529
v 0.6674392 1.3346484 -0.05753529
v -0.6266372 1.0180113 -0.057008147
v 0.5927021 1.013267 -0.057008147
v -0.6650015 0.6975087 -0.06058097
v 0.55433786 0.68807864 -0.06058097
v -0.6891329 0.37138307 -0.05829668
v 0.53014785 0.36499882 -0.05829668
v -0.6711515 0.03828752 -0.059936643
v 0.54812926 0.034948945 -0.059936643
v -0.24984741 1.424614 0.16005754
v -0.14037752 1.7194037 0.13247037
v 1.1317933 1.5404682 -0.18117946
v 1.0247834 1.2753739 -0.15722376
v -0.34016454 1.1263099 0.18167031
v 0.93692625 1.0067656 -0.13924235
v -0.40482736 0.8299972 0.20181894
v 0.873142 0.7631086 -0.12483382
v -0.43628025 0.52993584 0.20955038
v 0.8426263 0.51570296 -0.12290096
v -0.45039594 0.2524246 0.21464598
v 0.8285105 0.24217463 -0.11780524
v -0.43628025 -0.028893828 0.20955038
v 0.8426263 -0.035102367 -0.12290096
v -0.40758026 0.38520598 -0.56968355
v -0.42204738 0.06517184 -0.6054121
v 0.2282123 0.014097571 0.64860153
v 0.22756803 0.3625388 0.6405772
v -0.4030702 0.7030729 -0.5771807
v 0.21708375 0.7087543 0.5893272
v -0.43387878 1.3991354 -0.6723592
v 0.23652947 1.3996625 0.6159773
v -0.42105162 1.978348 -0.71529204
v 0.2262209 1.9852593 0.5274173
v 0.14193666 1.4240282 0.5671873
v 0.17227662 1.7194037 0.45689738
v 0.54900783 1.5404682 -0.79799485
v 0.5167936 1.2747884 -0.69168776
v 0.11300242 1.1263099 0.65399003
v 0.48598504 1.0067656 -0.6088678
v 0.099530935 0.8275372 0.71648574
v 0.46794504 0.7606486 -0.5501207
v 0.088168144 0.52993584 0.7508671
v 0.45213073 0.51570296 -0.51942927
v 0.08553243 0.25049174 0.7683215
v 0.44949502 0.2403003 -0.501975
v 0.088168144 -0.028893828 0.7508671
v 0.45213073 -0.035102367 -0.51942927
v 0.19506091 0.42005587 -0.10368955
v 0.24039513 -0.024910927 -0.108960986
v 0.547485 -0.020049572 -0.020810962
v 0.50888646 0.42679167 -0.017706752
v 0.18199944 0.85699856 -0.09543097
v 0.50256073 0.8656086 -0.011615276
v 0.1730966 1.3166668 -0.10011661
v 0.49318933 1.2955811 -0.015480995
v 0.21093374 1.7699509 -0.10134661
v 0.53026503 1.7194037 -0.015832424
v 0.28467512 1.9938109 -0.1182152
v 0.59469354 1.925458 -0.031412363
v 0.36251652 2.227452 -0.13596237
v 0.66275346 2.1405907 -0.047812343
v 0.45910078 2.4474463 -0.1506638
v 0.749732 2.3424277 -0.061225295
v 0.5579107 2.6665618 -0.16548234
v 0.83858484 2.543562 -0.07469666
v -0.43323445 0.41753733 -0.10286951
v -0.3993802 -0.024910927 -0.108960986
v -0.09234893 -0.020049572 -0.020810962
v -0.119408965 0.424273 -0.016945243
v -0.45783448 0.85699856 -0.09543097
v -0.13721466 0.8656086 -0.011615276
v -0.4547888 1.3150854 -0.099940896
v -0.13452041 1.2939997 -0.015305281
v -0.43153596 1.7667296 -0.101463795
v -0.11173606 1.7157724 -0.016008139
v -0.41542876 2.001425 -0.11382234
v -0.10523462 1.9325452 -0.0270195
v -0.39469457 2.2381122 -0.12565374
v -0.09463322 2.1510165 -0.03756237
v -0.36300743 2.4728663 -0.13637233
v -0.07319605 2.3674963 -0.047050953
v -0.3325503 2.7066834 -0.14761806
v -0.051817536 2.5836248 -0.056832433
v 0.07352519 0.43768597 -0.2638237
v 0.07106519 0.027276158 -0.30388653
v 0.1698752 0.031786084 -0.6076378
v 0.17040235 0.44395304 -0.57442784
v 0.08254528 0.8481543 -0.2450223
v 0.17743093 0.85612 -0.56247926
v 0.074520946 1.2737341 -0.24478799
v 0.17028517 1.2540541 -0.5619521
v 0.07750809 1.6965609 -0.27805656
v 0.17409235 1.6492352 -0.59486926
v 0.03762102 2.1176307 -0.42161506
v 0.13619661 2.036685 -0.71874774
v 0.025321007 2.5292706 -0.63217926
v 0.12582946 2.4147048 -0.9096905
v 0.051033854 0.44131732 0.37319875
v 0.048690915 0.027276158 0.33553743
v 0.14750093 0.031786084 0.031727552
v 0.1479109 0.4475845 0.06259465
v 0.060171008 0.8481543 0.39440167
v 0.15511519 0.8561785 0.07694471
v 0.05396235 1.273207 0.38930595
v 0.14972663 1.2535856 0.07220042
v 0.05513382 1.6965609 0.36136734
v 0.15171808 1.6492352 0.04449618
v 0.037796736 2.1287594 0.3037331
v 0.13637233 2.0478723 0.006541848
v 0.03328669 2.5580876 0.21329892
v 0.1338538 2.443522 -0.06415379
v 0.3979522 0.34244883 0.13604319
v 0.43233365 0.010173321 0.13071322
v 0.6072864 0.011988997 0.19596171
v 0.5821007 0.34461594 0.2000618
v 0.45400506 0.6528772 0.1543175
v 0.6419021 0.62880445 0.22161603
v 0.6203478 0.9094784 0.19110036
v 0.7798377 0.86309004 0.25670028
v 0.4723965 0.34157026 0.3836831
v 0.5059579 -0.06796098 0.39299595
v 0.6382707 -0.06608665 0.5246644
v 0.61367065 0.3697431 0.51798725
v 0.51585644 0.8223828 0.42339444
v 0.65923923 0.81611574 0.56232584
v 0.65221065 1.1769156 0.5256016
v 0.77040774 1.1304684 0.65123725
v -0.55992436 0.34244883 0.3698603
v -0.5438173 0.010173321 0.33893454
v -0.38760734 0.011988997 0.23672748
v -0.3992045 0.34461594 0.25945318
v -0.5119544 0.6528772 0.33553743
v -0.34637308 0.62880445 0.2240175
v -0.38374162 0.9094784 0.22331464
v -0.23637605 0.86309004 0.1337589
v -0.38116455 0.32206595 0.5008259
v -0.3482474 -0.04494238 0.5323373
v -0.17358744 -0.036625266 0.5978787
v -0.1973089 0.3511759 0.56507874
v -0.3238231 0.78524864 0.48495305
v -0.13627756 0.7855414 0.55541444
v -0.1564846 1.142534 0.49397302
v 0.0025366545 1.1029985 0.56507874
v 0.24765801 0.3129288 -0.5316707
v 0.25884515 -0.019405246 -0.5646464
v 0.39771795 -0.01758957 -0.68940353
v 0.38969368 0.31509602 -0.66521347
v 0.28982943 0.62329865 -0.5728464
v 0.4365508 0.5992844 -0.7082049
v 0.39953363 0.8799 -0.7032263
v 0.53155357 0.8335115 -0.8141606
v 0.39115793 0.3618945 -0.23647088
v 0.4149965 -0.026433825 -0.2618909
v 0.592995 -0.02116239 -0.318178
v 0.57571644 0.37425303 -0.29943514
v 0.44656646 0.7300743 -0.25661945
v 0.6361035 0.71127295 -0.31929082
v 0.6003164 1.0143213 -0.330068
v 0.7663663 0.9678743 -0.37657368
v -0.8322228 0.39118028 -0.019346714
v -0.8205086 0.058846116 -0.052146673
v -0.67952716 0.060720444 -0.1745609
v -0.68796146 0.39955592 -0.15048808
v -0.78940713 0.93648005 -0.05981958
v -0.64046013 0.95405126 -0.19271803
v -0.6775358 1.4487455 -0.18832517
v -0.54364157 1.4023569 -0.29703373
v -0.6109401 0.28686452 -0.04617238
v -0.5866915 -0.045469522 -0.07118237
v -0.40775597 -0.043653846 -0.12442374
v -0.42538595 0.28903174 -0.10597384
v -0.5551802 0.59723437 -0.06532526
v -0.3646474 0.5731616 -0.12483382
v -0.40025878 0.8538357 -0.13619661
v -0.2333889 0.8074472 -0.17989093
vt 7.388729E-05 0.8231957
vt 7.388729E-05 1.0003479
vt 0.99985856 1.0003479
vt 0.99985856 0.8231957
vt 7.388729E-05 0.6460434
vt 0.99985856 0.6460434
vt 7.388729E-05 0.4835723
vt 0.99985856 0.4835723
vt 7.388729E-05 0.3211012
vt 0.99985856 0.3211012
vt 7.388729E-05 0.16205564
vt 0.99985856 0.16205564
vt 7.388729E-05 0.0030101123
vt 0.99985856 0.0030101123
vt 7.388729E-05 0.8378768
vt 7.388729E-05 1.0003479
vt 0.99985856 1.0003479
vt 0.99985856 0.8378768
vt 7.388729E-05 0.6754057
vt 0.99985856 0.6754057
vt 7.388729E-05 0.51293457
vt 0.99985856 0.51293457
vt 7.388729E-05 0.35046342
vt 0.99985856 0.35046342
vt 7.388729E-05 0.17673676
vt 0.99985856 0.17673676
vt 7.388729E-05 0.0030101123
vt 0.99985856 0.0030101123
vt 7.388729E-05 0.18211985
vt 7.388729E-05 0.0030101123
vt 0.99985856 0.0030101123
vt 0.99985856 0.18211985
vt 7.388729E-05 0.3612296
vt 0.99985856 0.3612296
vt 7.388729E-05 0.71406597
vt 0.99985856 0.71406597
vt 7.388729E-05 0.99300736
vt 0.99985856 0.99300736
vt 7.388729E-05 0.8378768
vt 7.388729E-05 1.0003479
vt 0.99985856 1.0003479
vt 0.99985856 0.8378768
vt 7.388729E-05 0.6754057
vt 0.99985856 0.6754057
vt 7.388729E-05 0.51293457
vt 0.99985856 0.51293457
vt 7.388729E-05 0.35046342
vt 0.99985856 0.35046342
vt 7.388729E-05 0.17673676
vt 0.99985856 0.17673676
vt 7.388729E-05 0.0030101123
vt 0.99985856 0.0030101123
vt 0.666597 0.18211985
vt 0.666597 0.0030101123
vt 0.8001952 0.0030101123
vt 0.8001952 0.18211985
vt 0.666597 0.3612296
vt 0.8001952 0.3612296
vt 0.6734482 0.5374031
vt 0.82711065 0.5374031
vt 0.6802994 0.71406597
vt 0.854026 0.71406597
vt 0.67932063 0.7820885
vt 0.8559835 0.7820885
vt 0.6783419 0.85353667
vt 0.8574516 0.85353667
vt 0.67736316 0.92302734
vt 0.85891974 0.92302734
vt 0.6768738 0.992518
vt 0.86038786 0.992518
vt 0.4938491 0.18211985
vt 0.5021684 0.0030101123
vt 0.6352773 0.0030101123
vt 0.65191585 0.18211985
vt 0.48552978 0.3612296
vt 0.6685545 0.3612296
vt 0.49140224 0.45861438
vt 0.6763844 0.45861438
vt 0.49776405 0.55599916
vt 0.68421435 0.55599916
vt 0.5002109 0.6651289
vt 0.6861718 0.6651289
vt 0.5026578 0.7742586
vt 0.6881293 0.7742586
vt 0.505594 0.8833883
vt 0.6900868 0.8833883
vt 0.50804085 0.992518
vt 0.69204426 0.992518
vt 0.666597 0.18211985
vt 0.666597 0.0030101123
vt 0.8001952 0.0030101123
vt 0.8001952 0.18211985
vt 0.666597 0.3612296
vt 0.8001952 0.3612296
vt 0.6734482 0.5374031
vt 0.82711065 0.5374031
vt 0.6802994 0.71406597
vt 0.854026 0.71406597
vt 0.6783419 0.85353667
vt 0.8574516 0.85353667
vt 0.6768738 0.992518
vt 0.86038786 0.992518
vt 0.4938491 0.18211985
vt 0.5021684 0.0030101123
vt 0.6352773 0.0030101123
vt 0.65191585 0.18211985
vt 0.48552978 0.3612296
vt 0.6685545 0.3612296
vt 0.49140224 0.45861438
vt 0.6763844 0.45861438
vt 0.49776405 0.55599916
vt 0.68421435 0.55599916
vt 0.5026578 0.7742586
vt 0.6881293 0.7742586
vt 0.50804085 0.992518
vt 0.69204426 0.992518
vt 0.48552978 0.3612296
vt 0.5021684 0.0030101123
vt 0.6352773 0.0030101123
vt 0.6685545 0.3612296
vt 0.49776405 0.55599916
vt 0.68421435 0.55599916
vt 0.50804085 0.992518
vt 0.69204426 0.992518
vt 0.310335 0.37493196
vt 0.3426335 0.0030101123
vt 0.4703593 0.0030101123
vt 0.4664443 0.37493196
vt 0.27950466 0.69938487
vt 0.45274195 0.69938487
vt 0.2315463 0.992518
vt 0.43218836 0.992518
vt 0.48552978 0.3612296
vt 0.5021684 0.0030101123
vt 0.6352773 0.0030101123
vt 0.6685545 0.3612296
vt 0.49776405 0.55599916
vt 0.68421435 0.55599916
vt 0.50804085 0.992518
vt 0.69204426 0.992518
vt 0.310335 0.37493196
vt 0.3426335 0.0030101123
vt 0.4703593 0.0030101123
vt 0.4664443 0.37493196
vt 0.27950466 0.69938487
vt 0.45274195 0.69938487
vt 0.2315463 0.992518
vt 0.43218836 0.992518
vt 0.81340826 0.3612296
vt 0.83004683 0.0030101123
vt 0.96315575 0.0030101123
vt 0.99398607 0.3612296
vt 0.82466376 0.55599916
vt 0.9866455 0.55599916
vt 0.9098143 0.8026421
vt 0.98468804 0.8026421
vt 0.6734482 0.37493196
vt 0.67051196 0.0030101123
vt 0.79823774 0.0030101123
vt 0.8001952 0.37493196
vt 0.6754057 0.70134234
vt 0.84864295 0.70134234
vt 0.7155341 0.988603
vt 0.85206854 0.988603
vt 0.65191585 0.37003827
vt 0.65680957 0.0030101123
vt 0.79040784 0.0030101123
vt 0.77817357 0.36220834
vt 0.68078876 0.5829146
vt 0.85549414 0.59710634
vt 0.71944904 0.98713493
vt 0.8897501 0.98713493
vt 0.003988854 0.3778682
vt 0.04558538 -0.0013942253
vt 0.17380054 -0.0013942253
vt 0.18016236 0.37346387
vt 0.0059463372 0.696938
vt 0.18897103 0.70134234
vt 0.032372363 0.8995375
vt 0.16890682 0.8995375
vn -0.0018307567 -0.013218582 0.99991095
vn -0.0018307567 -0.0056939125 0.9999821
vn -0.0018307567 -0.0056939125 0.9999821
vn -0.0018307567 -0.013218582 0.99991095
vn -0.0018307567 -0.0056939125 0.9999821
vn -0.0018307567 -0.013218582 0.99991095
vn -0.0018307567 -0.0056939125 0.9999821
vn -0.0018307567 -0.0056939125 0.9999821
vn -0.0018307567 0.0018307567 0.99999666
vn -0.0018307567 -0.0056939125 0.9999821
vn -0.0018307567 0.0018307567 0.99999666
vn -0.0018307567 0.0018307567 0.99999666
vn -0.0018307567 -0.0056939125 0.9999821
vn -0.0018307567 -0.0056939125 0.9999821
vn 0.23895794 -0.0056939125 0.97101325
vn 0.23895794 -0.0056939125 0.97101325
vn 0.23895794 -0.0056939125 0.97101325
vn 0.23895794 -0.0056939125 0.97101325
vn 0.24648261 0.0018307567 0.9691455
vn 0.24648261 -0.0056939125 0.96913046
vn 0.24648261 -0.0056939125 0.96913046
vn 0.24648261 -0.0056939125 0.96913046
vn 0.25400728 -0.0056939125 0.96718556
vn 0.25400728 -0.0056939125 0.96718556
vn 0.25400728 0.0018307567 0.9672006
vn 0.25400728 0.0018307567 0.9672006
vn 0.25400728 -0.0056939125 0.96718556
vn 0.25400728 -0.0056939125 0.96718556
vn 0.8860776 -0.013218582 -0.46334845
vn 0.8860776 0.0018307567 -0.46353334
vn 0.8860776 0.0018307567 -0.46353334
vn 0.8860776 -0.013218582 -0.46334845
vn 0.8860776 -0.020743191 -0.4630726
vn 0.8860776 -0.02826786 -0.46267423
vn 0.8860776 -0.03579253 -0.46215302
vn 0.8860776 -0.03579253 -0.46215302
vn 0.8860776 -0.05084181 -0.4607403
vn 0.8860776 -0.05084181 -0.4607403
vn 0.96132404 -0.0056939125 0.27536097
vn 0.96132404 0.0018307567 0.27541375
vn 0.96132404 0.0018307567 0.27541375
vn 0.96132404 -0.0056939125 0.27536097
vn 0.96132404 -0.0056939125 0.27536097
vn 0.96132404 -0.0056939125 0.27536097
vn 0.96132404 -0.0056939125 0.27536097
vn 0.96132404 -0.0056939125 0.27536097
vn 0.96132404 -0.0056939125 0.27536097
vn 0.96132404 -0.0056939125 0.27536097
vn 0.96132404 0.0018307567 0.27541375
vn 0.96132404 0.0018307567 0.27541375
vn 0.96132404 -0.0056939125 0.27536097
vn 0.96132404 -0.0056939125 0.27536097
vn 0.2615319 0.024404645 -0.96488625
vn 0.26905656 0.031929314 -0.962595
vn 0.26905656 0.031929314 -0.962595
vn 0.2615319 0.024404645 -0.96488625
vn 0.25400728 0.009355366 -0.96715707
vn 0.25400728 0.009355366 -0.96715707
vn 0.25400728 -0.013218582 -0.967112
vn 0.25400728 -0.013218582 -0.967112
vn 0.24648261 -0.080940366 -0.96576136
vn 0.24648261 -0.088465035 -0.9651011
vn 0.23895794 -0.14866221 -0.95958257
vn 0.23895794 -0.14866221 -0.95958257
vn 0.23895794 -0.15618682 -0.95838654
vn 0.23895794 -0.15618682 -0.95838654
vn 0.23143333 -0.16371149 -0.95897716
vn 0.23143333 -0.16371149 -0.95897716
vn 0.23143333 -0.17123616 -0.9576621
vn 0.23143333 -0.17123616 -0.9576621
vn 0.2615319 0.024404645 -0.96488625
vn 0.26905656 0.031929314 -0.962595
vn 0.26905656 0.031929314 -0.962595
vn 0.2615319 0.024404645 -0.96488625
vn 0.25400728 0.009355366 -0.96715707
vn 0.25400728 0.009355366 -0.96715707
vn 0.25400728 -0.013218582 -0.967112
vn 0.25400728 -0.013218582 -0.967112
vn 0.25400728 -0.04331714 -0.9662318
vn 0.25400728 -0.03579253 -0.9665398
vn 0.25400728 -0.06589109 -0.9649553
vn 0.25400728 -0.06589109 -0.9649553
vn 0.2615319 -0.073415756 -0.96239865
vn 0.2615319 -0.06589109 -0.9629431
vn 0.26905656 -0.073415756 -0.9603222
vn 0.26905656 -0.073415756 -0.9603222
vn 0.26905656 -0.073415756 -0.9603222
vn 0.26905656 -0.073415756 -0.9603222
vn -0.9574608 0.031929314 -0.28679135
vn -0.9499362 0.031929314 -0.31080818
vn -0.9499362 0.031929314 -0.31080818
vn -0.9574608 0.031929314 -0.28679135
vn -0.9574608 0.009355366 -0.2884116
vn -0.9574608 0.009355366 -0.2884116
vn -0.9574608 -0.013218582 -0.28826034
vn -0.9574608 -0.013218582 -0.28826034
vn -0.9574608 -0.095989704 -0.27213
vn -0.9574608 -0.095989704 -0.27213
vn -0.9499362 -0.17123616 -0.2613415
vn -0.9499362 -0.17123616 -0.2613415
vn -0.9499362 -0.16371149 -0.2661198
vn -0.9499362 -0.16371149 -0.2661198
vn -0.9574608 0.031929314 -0.28679135
vn -0.9499362 0.024404645 -0.31148934
vn -0.9499362 0.024404645 -0.31148934
vn -0.9574608 0.031929314 -0.28679135
vn -0.9574608 0.009355366 -0.2884116
vn -0.9574608 0.009355366 -0.2884116
vn -0.9574608 -0.013218582 -0.28826034
vn -0.9574608 -0.013218582 -0.28826034
vn -0.9574608 -0.04331714 -0.28529352
vn -0.9574608 -0.04331714 -0.28529352
vn -0.9499362 -0.06589109 -0.30541703
vn -0.9499362 -0.06589109 -0.30541703
vn -0.9499362 -0.06589109 -0.30541703
vn -0.9499362 -0.06589109 -0.30541703
vn 0.33677834 0.024404645 -0.94126767
vn 0.33677834 0.046978652 -0.94041127
vn 0.33677834 0.046978652 -0.94041127
vn 0.33677834 0.016880035 -0.94143265
vn 0.33677834 -0.02826786 -0.94115955
vn 0.33677834 -0.04331714 -0.94058704
vn 0.344303 -0.073415756 -0.9359837
vn 0.344303 -0.073415756 -0.9359837
vn 0.6904367 0.016880035 -0.72319585
vn 0.6979614 0.031929314 -0.7154233
vn 0.6979614 0.031929314 -0.7154233
vn 0.6904367 0.016880035 -0.72319585
vn 0.6979614 -0.02826786 -0.7155773
vn 0.6979614 -0.03579253 -0.7152404
vn 0.70548606 -0.058366418 -0.70631635
vn 0.70548606 -0.058366418 -0.70631635
vn -0.5586546 0.024404645 -0.8290413
vn -0.5586546 0.046978652 -0.8280689
vn -0.5586546 0.046978652 -0.8280689
vn -0.5586546 0.016880035 -0.82922864
vn -0.5586546 -0.02826786 -0.8289186
vn -0.5586546 -0.04331714 -0.8282685
vn -0.5511299 -0.073415756 -0.8311835
vn -0.5511299 -0.073415756 -0.8311835
vn 0.344303 -0.06589109 -0.9365435
vn 0.344303 -0.05084181 -0.937481
vn 0.344303 -0.05084181 -0.937481
vn 0.344303 -0.06589109 -0.9365435
vn 0.35182768 -0.095989704 -0.9311301
vn 0.35182768 -0.11103898 -0.9294556
vn 0.3593523 -0.14113754 -0.9224674
vn 0.3593523 -0.14113754 -0.9224674
vn -0.67904896 0.024404645 -0.7336872
vn -0.67904896 0.046978652 -0.73258823
vn -0.67904896 0.046978652 -0.73258823
vn -0.67904896 0.016880035 -0.7338989
vn -0.67904896 -0.02826786 -0.7335485
vn -0.67904896 -0.04331714 -0.73281384
vn -0.6715242 -0.073415756 -0.73733664
vn -0.6715242 -0.073415756 -0.73733664
vn -0.3178659 0.016880035 -0.9479854
vn -0.3103413 0.039453924 -0.94980615
vn -0.3103413 0.039453924 -0.94980615
vn -0.3178659 0.016880035 -0.9479854
vn -0.3103413 -0.02826786 -0.95020485
vn -0.3103413 -0.04331714 -0.94963783
vn -0.30281657 -0.06589109 -0.95076835
vn -0.30281657 -0.06589109 -0.95076835
vn -0.6639996 0.024404645 -0.74733454
vn -0.6639996 0.046978652 -0.7462557
vn -0.6639996 0.046978652 -0.7462557
vn -0.6639996 0.016880035 -0.7475424
vn -0.6639996 -0.020743191 -0.7474451
vn -0.656475 -0.02826786 -0.7538179
vn -0.6489504 -0.04331714 -0.75959665
vn -0.6489504 -0.04331714 -0.75959665
vn -0.30281657 0.024404645 -0.9527364
vn -0.29529196 0.046978652 -0.95425135
vn -0.29529196 0.046978652 -0.95425135
vn -0.30281657 0.016880035 -0.9528994
vn -0.29529196 -0.02826786 -0.9549888
vn -0.29529196 -0.04331714 -0.95442456
vn -0.28776735 -0.073415756 -0.95488226
vn -0.28776735 -0.073415756 -0.95488226
g beachGrass01Geo_0
f 3/3/3 2/2/2 1/1/1
f 4/4/4 3/3/3 1/1/1
f 4/4/4 1/1/1 5/5/5
f 6/6/6 4/4/4 5/5/5
f 6/6/6 5/5/5 7/7/7
f 8/8/8 6/6/6 7/7/7
f 8/8/8 7/7/7 9/9/9
f 10/10/10 8/8/8 9/9/9
f 10/10/10 9/9/9 11/11/11
f 12/12/12 10/10/10 11/11/11
f 12/12/12 11/11/11 13/13/13
f 14/14/14 12/12/12 13/13/13
f 17/17/17 16/16/16 15/15/15
f 18/18/18 17/17/17 15/15/15
f 18/18/18 15/15/15 19/19/19
f 20/20/20 18/18/18 19/19/19
f 20/20/20 19/19/19 21/21/21
f 22/22/22 20/20/20 21/21/21
f 22/22/22 21/21/21 23/23/23
f 24/24/24 22/22/22 23/23/23
f 24/24/24 23/23/23 25/25/25
f 26/26/26 24/24/24 25/25/25
f 26/26/26 25/25/25 27/27/27
f 28/28/28 26/26/26 27/27/27
f 31/31/31 30/30/30 29/29/29
f 32/32/32 31/31/31 29/29/29
f 32/32/32 29/29/29 33/33/33
f 34/34/34 32/32/32 33/33/33
f 34/34/34 33/33/33 35/35/35
f 36/36/36 34/34/34 35/35/35
f 36/36/36 35/35/35 37/37/37
f 38/38/38 36/36/36 37/37/37
f 41/41/41 40/40/40 39/39/39
f 42/42/42 41/41/41 39/39/39
f 42/42/42 39/39/39 43/43/43
f 44/44/44 42/42/42 43/43/43
f 44/44/44 43/43/43 45/45/45
f 46/46/46 44/44/44 45/45/45
f 46/46/46 45/45/45 47/47/47
f 48/48/48 46/46/46 47/47/47
f 48/48/48 47/47/47 49/49/49
f 50/50/50 48/48/48 49/49/49
f 50/50/50 49/49/49 51/51/51
f 52/52/52 50/50/50 51/51/51
f 55/55/55 54/54/54 53/53/53
f 56/56/56 55/55/55 53/53/53
f 56/56/56 53/53/53 57/57/57
f 58/58/58 56/56/56 57/57/57
f 58/58/58 57/57/57 59/59/59
f 60/60/60 58/58/58 59/59/59
f 60/60/60 59/59/59 61/61/61
f 62/62/62 60/60/60 61/61/61
f 62/62/62 61/61/61 63/63/63
f 64/64/64 62/62/62 63/63/63
f 64/64/64 63/63/63 65/65/65
f 66/66/66 64/64/64 65/65/65
f 66/66/66 65/65/65 67/67/67
f 68/68/68 66/66/66 67/67/67
f 68/68/68 67/67/67 69/69/69
f 70/70/70 68/68/68 69/69/69
f 73/73/73 72/72/72 71/71/71
f 74/74/74 73/73/73 71/71/71
f 74/74/74 71/71/71 75/75/75
f 76/76/76 74/74/74 75/75/75
f 76/76/76 75/75/75 77/77/77
f 78/78/78 76/76/76 77/77/77
f 78/78/78 77/77/77 79/79/79
f 80/80/80 78/78/78 79/79/79
f 80/80/80 79/79/79 81/81/81
f 82/82/82 80/80/80 81/81/81
f 82/82/82 81/81/81 83/83/83
f 84/84/84 82/82/82 83/83/83
f 84/84/84 83/83/83 85/85/85
f 86/86/86 84/84/84 85/85/85
f 86/86/86 85/85/85 87/87/87
f 88/88/88 86/86/86 87/87/87
f 91/91/91 90/90/90 89/89/89
f 92/92/92 91/91/91 89/89/89
f 92/92/92 89/89/89 93/93/93
f 94/94/94 92/92/92 93/93/93
f 94/94/94 93/93/93 95/95/95
f 96/96/96 94/94/94 95/95/95
f 96/96/96 95/95/95 97/97/97
f 98/98/98 96/96/96 97/97/97
f 98/98/98 97/97/97 99/99/99
f 100/100/100 98/98/98 99/99/99
f 100/100/100 99/99/99 101/101/101
f 102/102/102 100/100/100 101/101/101
f 105/105/105 104/104/104 103/103/103
f 106/106/106 105/105/105 103/103/103
f 106/106/106 103/103/103 107/107/107
f 108/108/108 106/106/106 107/107/107
f 108/108/108 107/107/107 109/109/109
f 110/110/110 108/108/108 109/109/109
f 110/110/110 109/109/109 111/111/111
f 112/112/112 110/110/110 111/111/111
f 112/112/112 111/111/111 113/113/113
f 114/114/114 112/112/112 113/113/113
f 114/114/114 113/113/113 115/115/115
f 116/116/116 114/114/114 115/115/115
f 119/119/119 118/118/118 117/117/117
f 120/120/120 119/119/119 117/117/117
f 120/120/120 117/117/117 121/121/121
f 122/122/122 120/120/120 121/121/121
f 122/122/122 121/121/121 123/123/123
f 124/124/124 122/122/122 123/123/123
f 127/127/127 126/126/126 125/125/125
f 128/128/128 127/127/127 125/125/125
f 128/128/128 125/125/125 129/129/129
f 130/130/130 128/128/128 129/129/129
f 130/130/130 129/129/129 131/131/131
f 132/132/132 130/130/130 131/131/131
f 135/135/135 134/134/134 133/133/133
f 136/136/136 135/135/135 133/133/133
f 136/136/136 133/133/133 137/137/137
f 138/138/138 136/136/136 137/137/137
f 138/138/138 137/137/137 139/139/139
f 140/140/140 138/138/138 139/139/139
f 143/143/143 142/142/142 141/141/141
f 144/144/144 143/143/143 141/141/141
f 144/144/144 141/141/141 145/145/145
f 146/146/146 144/144/144 145/145/145
f 146/146/146 145/145/145 147/147/147
f 148/148/148 146/146/146 147/147/147
f 151/151/151 150/150/150 149/149/149
f 152/152/152 151/151/151 149/149/149
f 152/152/152 149/149/149 153/153/153
f 154/154/154 152/152/152 153/153/153
f 154/154/154 153/153/153 155/155/155
f 156/156/156 154/154/154 155/155/155
f 159/159/159 158/158/158 157/157/157
f 160/160/160 159/159/159 157/157/157
f 160/160/160 157/157/157 161/161/161
f 162/162/162 160/160/160 161/161/161
f 162/162/162 161/161/161 163/163/163
f 164/164/164 162/162/162 163/163/163
f 167/167/167 166/166/166 165/165/165
f 168/168/168 167/167/167 165/165/165
f 168/168/168 165/165/165 169/169/169
f 170/170/170 168/168/168 169/169/169
f 170/170/170 169/169/169 171/171/171
f 172/172/172 170/170/170 171/171/171
f 175/175/175 174/174/174 173/173/173
f 176/176/176 175/175/175 173/173/173
f 176/176/176 173/173/173 177/177/177
f 178/178/178 176/176/176 177/177/177
f 178/178/178 177/177/177 179/179/179
f 180/180/180 178/178/178 179/179/179
