g n_eyebrows_fernB_mesh
v 2.8030336 94.49533 4.0405865
v 2.9408648 94.55076 4.0151176
v 2.9228868 94.49533 3.961184
v 3.04274 94.47735 3.8578105
v 2.8180153 94.55825 4.097517
v 2.581305 94.483345 4.187407
v 2.5843015 94.562744 4.244337
v 2.163317 94.41892 4.3462124
v 2.7940447 94.630165 4.0405865
v 2.5723162 94.65414 4.191901
v 2.9183924 94.61518 3.9596858
v 2.1318555 94.63316 4.3566995
v 3.0652127 94.52529 3.90725
v 3.0442383 94.583725 3.8533158
v 3.286941 94.43091 3.6600528
v 3.2644687 94.40095 3.628591
v 3.2779522 94.46836 3.6196022
v 3.4562337 94.30057 3.4263387
v 3.4817026 94.31106 3.4398222
v 3.484699 94.33053 3.4143534
v 3.5281458 94.26162 3.3199692
v 2.1588225 94.526794 4.440597
v 1.7348416 94.47735 4.5859184
v 1.7093728 94.603195 4.4930325
v 1.8337206 94.37248 4.442095
v 1.4412012 94.58222 4.5799265
v 1.6779113 94.33353 4.484044
v 1.21348 94.399445 4.72375
v 1.1715314 94.529785 4.6653214
v 0.9408138 94.320045 4.7642
v 1.2374506 94.246635 4.6323624
v 0.9078543 94.409935 4.72375
v 0.9557955 94.189705 4.6548347
v 0.7400596 94.31854 4.75671
v 0.78800106 94.16723 4.7117643
v 0.68462753 94.21667 4.7447243
v -3.2870092 94.43091 3.6600528
v -3.0428085 94.47735 3.8578105
v -3.2645369 94.40095 3.628591
v -3.4563022 94.30057 3.4263387
v -3.065281 94.52529 3.90725
v -2.922955 94.49533 3.961184
v -3.481771 94.31106 3.4398222
v -3.528214 94.26162 3.3199692
v -3.4847674 94.33053 3.4143534
v -3.2780204 94.46836 3.6196022
v -3.0443068 94.583725 3.8533158
v -2.9409332 94.55076 4.0151176
v -2.8016038 94.49533 4.0405865
v -2.9184608 94.61518 3.9596858
v -2.8180838 94.55825 4.097517
v -2.5813732 94.483345 4.187407
v -2.792615 94.630165 4.0405865
v -2.5843697 94.562744 4.244337
v -2.5723844 94.65414 4.191901
v -2.1633854 94.41892 4.3462124
v -2.1319237 94.63316 4.3566995
v -2.1588907 94.526794 4.440597
v -1.8337889 94.37248 4.442095
v -1.73491 94.47735 4.5859184
v -1.7094412 94.603195 4.4930325
v -1.6779795 94.33353 4.484044
v -1.4412694 94.58222 4.5799265
v -1.2135482 94.399445 4.72375
v -1.2375188 94.246635 4.6323624
v -0.939384 94.320045 4.7642
v -1.1715994 94.529785 4.6653214
v -0.95586395 94.189705 4.6548347
v -0.90792227 94.409935 4.72375
v -0.78806925 94.16723 4.7117643
v -0.74012804 94.31854 4.75671
v -0.6846957 94.21667 4.7447243
vt 0.63960856 0.005927682
vt 0.6528893 0.014465302
vt 0.6481462 0.005927682
vt 0.6566838 0.005927682
vt 0.6453003 0.016362548
vt 0.6263279 0.005927682
vt 0.6320196 0.01731117
vt 0.60545814 0.005927682
vt 0.6490948 0.027746037
vt 0.6358141 0.027746037
vt 0.6566838 0.027746037
vt 0.61494434 0.027746037
vt 0.6604783 0.013516679
vt 0.6642728 0.027746037
vt 0.6785022 0.009722181
vt 0.6756563 0.005927682
vt 0.6803994 0.027746037
vt 0.6955774 0.005927682
vt 0.6955774 0.006876312
vt 0.69652605 0.027746037
vt 0.70126915 0.005927682
vt 0.61114985 0.02015704
vt 0.5921774 0.021105677
vt 0.5950233 0.027746037
vt 0.5912288 0.005927682
vt 0.5817425 0.027746037
vt 0.5845884 0.005927682
vt 0.5656159 0.021105677
vt 0.56751317 0.027746037
vt 0.5532838 0.021105677
vt 0.56277 0.005927682
vt 0.5532838 0.027746037
vt 0.5504379 0.005927682
vt 0.54095167 0.02015704
vt 0.54664344 0.0106708035
vt 0.54284894 0.015413925
vt 0.6785022 0.009722181
vt 0.6566838 0.005927682
vt 0.6756563 0.005927682
vt 0.6955774 0.005927682
vt 0.6604783 0.013516679
vt 0.6481462 0.005927682
vt 0.6955774 0.006876312
vt 0.70126915 0.005927682
vt 0.69652605 0.027746037
vt 0.6803994 0.027746037
vt 0.6642728 0.027746037
vt 0.6528893 0.014465302
vt 0.63960856 0.005927682
vt 0.6566838 0.027746037
vt 0.6453003 0.016362548
vt 0.6263279 0.005927682
vt 0.6490948 0.027746037
vt 0.6320196 0.01731117
vt 0.6358141 0.027746037
vt 0.60545814 0.005927682
vt 0.61494434 0.027746037
vt 0.61114985 0.02015704
vt 0.5912288 0.005927682
vt 0.5921774 0.021105677
vt 0.5950233 0.027746037
vt 0.5845884 0.005927682
vt 0.5817425 0.027746037
vt 0.5656159 0.021105677
vt 0.56277 0.005927682
vt 0.5532838 0.021105677
vt 0.56751317 0.027746037
vt 0.5504379 0.005927682
vt 0.5532838 0.027746037
vt 0.54664344 0.0106708035
vt 0.54095167 0.02015704
vt 0.54284894 0.015413925
vn 0.42301914 -0.6316458 0.6496756
vn 0.6190018 0.07009852 0.78225505
vn 0.385087 -0.7011881 0.600036
vn 0.33451083 -0.7454422 0.5765574
vn 0.56842566 0.025844395 0.8223286
vn 0.39773104 -0.5873917 0.70482695
vn 0.44830722 0.025844395 0.8935059
vn 0.34083286 -0.6126798 0.7130613
vn 0.4735953 0.59482634 0.64952993
vn 0.3534769 0.57586026 0.73718315
vn 0.51784945 0.6580465 0.5466322
vn 0.2333585 0.60114825 0.7643066
vn 0.72647613 0.076420546 0.6829292
vn 0.6506119 0.62643635 0.42928037
vn 0.7391202 -0.024731815 0.67311937
vn 0.24600255 -0.7833743 0.5707955
vn 0.71383214 0.5821823 0.38923955
vn 0.15749425 -0.82130647 0.5483167
vn 0.75176424 -0.05001986 0.65753216
vn 0.78969634 0.49367392 0.36423308
vn 0.72647613 -0.48623934 0.48559624
vn 0.3534769 0.025844395 0.9350862
vn 0.32186678 -0.06898594 0.94426835
vn 0.19542634 0.6137923 0.7648971
vn 0.30922276 -0.6379678 0.70525056
vn 0.16381627 0.49367392 0.8540786
vn 0.3281888 -0.5557816 0.7638055
vn 0.25232458 -0.23968053 0.9374889
vn 0.08795202 0.43045378 0.89831734
vn 0.15117222 -0.1701383 0.9737556
vn 0.29025668 -0.54313755 0.7878786
vn 0.005765736 0.40516567 0.9142251
vn 0.24600255 -0.5494596 0.79848415
vn -0.038488388 -0.005765736 0.9992424
vn 0.18278235 -0.46727327 0.86501235
vn 0.043697834 -0.29025668 0.9559506
vn -0.7402328 -0.024731815 0.67189556
vn -0.33562338 -0.7454422 0.57591045
vn -0.24079311 -0.7833743 0.57301253
vn -0.15860683 -0.82130647 0.5479959
vn -0.72126675 0.076420546 0.6884288
vn -0.3861996 -0.7011881 0.59932053
vn -0.75287676 -0.05001986 0.656258
vn -0.7275888 -0.48623934 0.48392755
vn -0.7908089 0.49367392 0.36181116
vn -0.7149447 0.5821823 0.38719225
vn -0.65172446 0.62643635 0.4275895
vn -0.6201143 0.07009852 0.78137344
vn -0.42413175 -0.6316458 0.6489498
vn -0.518962 0.6580465 0.5455761
vn -0.56953824 0.025844395 0.8215584
vn -0.39884365 -0.5873917 0.70419794
vn -0.46838582 0.59482634 0.65329653
vn -0.44941974 0.025844395 0.8929468
vn -0.35458946 0.57586026 0.7366487
vn -0.3419454 -0.6126798 0.71252847
vn -0.23447108 0.60114825 0.763966
vn -0.35458946 0.025844395 0.93466485
vn -0.31033528 -0.6379678 0.7047617
vn -0.32297933 -0.06898594 0.94388837
vn -0.19653893 0.6137923 0.76461196
vn -0.32297933 -0.5557816 0.7660229
vn -0.16492885 0.49367392 0.85386443
vn -0.24711514 -0.23968053 0.93887556
vn -0.29136932 -0.54313755 0.7874678
vn -0.1522848 -0.1701383 0.9735822
vn -0.0890646 0.43045378 0.89820766
vn -0.24711514 -0.5494596 0.79814047
vn -0.0068783164 0.40516567 0.9142174
vn -0.18389487 -0.46727327 0.8647765
vn 0.037375867 -0.005765736 0.9992846
vn -0.044810414 -0.29025668 0.9558991
g n_eyebrows_fernB_mesh_0
f 3/3/3 2/2/2 1/1/1
f 3/3/3 4/4/4 2/2/2
f 2/2/2 5/5/5 1/1/1
f 6/6/6 1/1/1 5/5/5
f 7/7/7 6/6/6 5/5/5
f 6/6/6 7/7/7 8/8/8
f 9/9/9 5/5/5 2/2/2
f 7/7/7 5/5/5 9/9/9
f 10/10/10 7/7/7 9/9/9
f 11/11/11 9/9/9 2/2/2
f 10/10/10 12/12/12 7/7/7
f 11/11/11 2/2/2 13/13/13
f 4/4/4 13/13/13 2/2/2
f 14/14/14 11/11/11 13/13/13
f 15/15/15 13/13/13 4/4/4
f 14/14/14 13/13/13 15/15/15
f 16/16/16 15/15/15 4/4/4
f 17/17/17 14/14/14 15/15/15
f 16/16/16 18/18/18 15/15/15
f 17/17/17 15/15/15 19/19/19
f 18/18/18 19/19/19 15/15/15
f 20/20/20 17/17/17 19/19/19
f 18/18/18 21/21/21 19/19/19
f 20/20/20 19/19/19 21/21/21
f 12/12/12 22/22/22 7/7/7
f 23/23/23 22/22/22 12/12/12
f 7/7/7 22/22/22 8/8/8
f 8/8/8 22/22/22 23/23/23
f 24/24/24 23/23/23 12/12/12
f 25/25/25 8/8/8 23/23/23
f 26/26/26 23/23/23 24/24/24
f 27/27/27 25/25/25 23/23/23
f 26/26/26 28/28/28 23/23/23
f 27/27/27 23/23/23 28/28/28
f 26/26/26 29/29/29 28/28/28
f 30/30/30 28/28/28 29/29/29
f 31/31/31 27/27/27 28/28/28
f 28/28/28 30/30/30 31/31/31
f 32/32/32 30/30/30 29/29/29
f 30/30/30 33/33/33 31/31/31
f 34/34/34 30/30/30 32/32/32
f 35/35/35 33/33/33 30/30/30
f 36/36/36 30/30/30 34/34/34
f 36/36/36 35/35/35 30/30/30
f 39/39/39 38/38/38 37/37/37
f 39/39/39 37/37/37 40/40/40
f 38/38/38 41/41/41 37/37/37
f 41/41/41 38/38/38 42/42/42
f 37/37/37 43/43/43 40/40/40
f 44/44/44 40/40/40 43/43/43
f 43/43/43 45/45/45 44/44/44
f 45/45/45 43/43/43 37/37/37
f 46/46/46 45/45/45 37/37/37
f 46/46/46 37/37/37 41/41/41
f 47/47/47 46/46/46 41/41/41
f 48/48/48 41/41/41 42/42/42
f 41/41/41 48/48/48 47/47/47
f 48/48/48 42/42/42 49/49/49
f 48/48/48 50/50/50 47/47/47
f 51/51/51 48/48/48 49/49/49
f 48/48/48 51/51/51 50/50/50
f 49/49/49 52/52/52 51/51/51
f 51/51/51 53/53/53 50/50/50
f 52/52/52 54/54/54 51/51/51
f 51/51/51 54/54/54 53/53/53
f 54/54/54 55/55/55 53/53/53
f 54/54/54 52/52/52 56/56/56
f 57/57/57 55/55/55 54/54/54
f 58/58/58 54/54/54 56/56/56
f 58/58/58 57/57/57 54/54/54
f 58/58/58 56/56/56 59/59/59
f 58/58/58 60/60/60 57/57/57
f 60/60/60 58/58/58 59/59/59
f 60/60/60 61/61/61 57/57/57
f 59/59/59 62/62/62 60/60/60
f 60/60/60 63/63/63 61/61/61
f 60/60/60 62/62/62 64/64/64
f 60/60/60 64/64/64 63/63/63
f 62/62/62 65/65/65 64/64/64
f 66/66/66 64/64/64 65/65/65
f 64/64/64 67/67/67 63/63/63
f 64/64/64 66/66/66 67/67/67
f 68/68/68 66/66/66 65/65/65
f 66/66/66 69/69/69 67/67/67
f 68/68/68 70/70/70 66/66/66
f 66/66/66 71/71/71 69/69/69
f 70/70/70 72/72/72 66/66/66
f 66/66/66 72/72/72 71/71/71
