g n_eyelashes_b_crease_mesh
v 1.0507017 93.76227 4.4045067
v 1.0655297 93.81418 4.4623356
v 1.1189104 93.81714 4.437128
v 2.9219909 93.87793 3.703144
v 2.9471984 93.88089 3.6764536
v 2.994648 93.80676 3.630487
v -1.0504208 93.76227 4.4045067
v -1.1186295 93.81714 4.437128
v -1.0667315 93.81418 4.4623356
v -2.92171 93.87793 3.703144
v -2.9943671 93.80676 3.630487
v -2.9469175 93.88089 3.6764536
v 1.3220536 93.96097 4.446025
v 1.274604 94.0188 4.4830947
v 1.4451256 94.12259 4.4653015
v 1.4747815 94.04697 4.4119205
v 2.0990388 94.0959 4.219157
v 2.1331432 94.168564 4.236951
v 2.4133918 94.127045 4.0871882
v 2.383736 94.05884 4.0768085
v 2.776677 93.95651 3.8054566
v 2.8078156 93.99359 3.8084226
v 2.9471984 93.88089 3.6764536
v 2.9219909 93.87793 3.703144
v 2.383736 94.05884 4.0768085
v 2.4133918 94.127045 4.0871882
v 2.564637 94.088486 3.9908066
v 2.5320156 94.030655 3.9804268
v 2.7010543 94.03955 3.892942
v 2.6684327 93.99359 3.8840451
v 2.776677 93.95651 3.8054566
v 2.8078156 93.99359 3.8084226
v 1.6408547 94.07959 4.3822646
v 1.6200956 94.15373 4.4208174
v 1.8499291 94.18042 4.346678
v 1.8395495 94.09886 4.3185043
v 2.0990388 94.0959 4.219157
v 2.1331432 94.168564 4.236951
v 1.4451256 94.12259 4.4653015
v 1.6200956 94.15373 4.4208174
v 1.6408547 94.07959 4.3822646
v 1.4747815 94.04697 4.4119205
v 1.1189104 93.81714 4.437128
v 1.0655297 93.81418 4.4623356
v 1.1589459 93.92241 4.4860606
v 1.2182578 93.8898 4.4549217
v 1.3220536 93.96097 4.446025
v 1.274604 94.0188 4.4830947
v -1.3217726 93.96097 4.446025
v -1.4745007 94.04697 4.4119205
v -1.4448447 94.12259 4.4653015
v -1.274323 94.0188 4.4830947
v -2.1002407 94.0959 4.219157
v -2.3834548 94.05884 4.0768085
v -2.4131107 94.127045 4.0871882
v -2.134345 94.168564 4.236951
v -2.7778788 93.95651 3.8054566
v -2.92171 93.87793 3.703144
v -2.9469175 93.88089 3.6764536
v -2.8075347 93.99359 3.8084226
v -2.3834548 94.05884 4.0768085
v -2.5643563 94.088486 3.9908066
v -2.4131107 94.127045 4.0871882
v -2.5317345 94.030655 3.9804268
v -2.7007732 94.03955 3.892942
v -2.6681519 93.99359 3.8840451
v -2.7778788 93.95651 3.8054566
v -2.8075347 93.99359 3.8084226
v -1.640574 94.07959 4.3822646
v -1.8496485 94.18042 4.346678
v -1.6198149 94.15373 4.4208174
v -1.8392687 94.09886 4.3185043
v -2.1002407 94.0959 4.219157
v -2.134345 94.168564 4.236951
v -1.4448447 94.12259 4.4653015
v -1.4745007 94.04697 4.4119205
v -1.640574 94.07959 4.3822646
v -1.6198149 94.15373 4.4208174
v -1.1186295 93.81714 4.437128
v -1.1586652 93.92241 4.4860606
v -1.0667315 93.81418 4.4623356
v -1.217977 93.8898 4.4549217
v -1.3217726 93.96097 4.446025
v -1.274323 94.0188 4.4830947
vt 0.5857674 0.5852638
vt 0.58425665 0.58476025
vt 0.58425665 0.58476025
vt 0.57569575 0.5807316
vt 0.57569575 0.5807316
vt 0.5746886 0.580228
vt 0.5857674 0.5852638
vt 0.58425665 0.58476025
vt 0.58425665 0.58476025
vt 0.57569575 0.5807316
vt 0.5746886 0.580228
vt 0.57569575 0.5807316
vt 0.58375305 0.58425665
vt 0.58375305 0.58425665
vt 0.5832495 0.58425665
vt 0.5832495 0.58425665
vt 0.57972443 0.5822423
vt 0.57972443 0.5822423
vt 0.57871723 0.58173877
vt 0.57871723 0.58173877
vt 0.57670295 0.5812352
vt 0.57670295 0.5812352
vt 0.57569575 0.5807316
vt 0.57569575 0.5807316
vt 0.57871723 0.58173877
vt 0.57871723 0.58173877
vt 0.5782137 0.58173877
vt 0.5782137 0.58173877
vt 0.5777101 0.5812352
vt 0.5777101 0.5812352
vt 0.57670295 0.5812352
vt 0.57670295 0.5812352
vt 0.5822423 0.5832495
vt 0.5822423 0.5832495
vt 0.5807316 0.5822423
vt 0.5807316 0.5822423
vt 0.57972443 0.5822423
vt 0.57972443 0.5822423
vt 0.5832495 0.58425665
vt 0.5822423 0.5832495
vt 0.5822423 0.5832495
vt 0.5832495 0.58425665
vt 0.58425665 0.58476025
vt 0.58425665 0.58476025
vt 0.58375305 0.58425665
vt 0.58375305 0.58425665
vt 0.58375305 0.58425665
vt 0.58375305 0.58425665
vt 0.58375305 0.58425665
vt 0.5832495 0.58425665
vt 0.5832495 0.58425665
vt 0.58375305 0.58425665
vt 0.57972443 0.5822423
vt 0.57871723 0.58173877
vt 0.57871723 0.58173877
vt 0.57972443 0.5822423
vt 0.57670295 0.5812352
vt 0.57569575 0.5807316
vt 0.57569575 0.5807316
vt 0.57670295 0.5812352
vt 0.57871723 0.58173877
vt 0.5782137 0.58173877
vt 0.57871723 0.58173877
vt 0.5782137 0.58173877
vt 0.5777101 0.5812352
vt 0.5777101 0.5812352
vt 0.57670295 0.5812352
vt 0.57670295 0.5812352
vt 0.5822423 0.5832495
vt 0.5807316 0.5822423
vt 0.5822423 0.5832495
vt 0.5807316 0.5822423
vt 0.57972443 0.5822423
vt 0.57972443 0.5822423
vt 0.5832495 0.58425665
vt 0.5832495 0.58425665
vt 0.5822423 0.5832495
vt 0.5822423 0.5832495
vt 0.58425665 0.58476025
vt 0.58375305 0.58425665
vt 0.58425665 0.58476025
vt 0.58375305 0.58425665
vt 0.58375305 0.58425665
vt 0.58375305 0.58425665
vn 0.32640278 -0.7445165 0.5823714
vn 0.32640278 -0.7445165 0.5823714
vn 0.32640278 -0.7445165 0.5823714
vn 0.73870933 0.06267524 0.67110384
vn 0.73870933 0.06267524 0.67110384
vn 0.73870933 0.06267524 0.67110384
vn -0.32980347 -0.7445165 0.5804523
vn -0.32980347 -0.7445165 0.5804523
vn -0.32980347 -0.7445165 0.5804523
vn -0.73630285 0.06267524 0.6737432
vn -0.73630285 0.06267524 0.6737432
vn -0.73630285 0.06267524 0.6737432
vn 0.33220994 -0.34963134 0.87601054
vn 0.33220994 -0.34963134 0.87601054
vn 0.35543847 -0.36705273 0.8596137
vn 0.35543847 -0.36705273 0.8596137
vn 0.3902813 -0.35543847 0.8493197
vn 0.3902813 -0.35543847 0.8493197
vn 0.3902813 -0.35543847 0.8493197
vn 0.3902813 -0.35543847 0.8493197
vn 0.5238454 -0.22768152 0.82082105
vn 0.5238454 -0.22768152 0.82082105
vn 0.5238454 -0.22768152 0.82082105
vn 0.5238454 -0.22768152 0.82082105
vn 0.4425455 -0.3612456 0.8207649
vn 0.4425455 -0.3612456 0.8207649
vn 0.4425455 -0.3902813 0.8073623
vn 0.4425455 -0.38447416 0.8101439
vn 0.43673834 -0.42512408 0.79279834
vn 0.43673834 -0.42512408 0.79279834
vn 0.4309312 -0.43673834 0.7896568
vn 0.4309312 -0.43673834 0.7896568
vn 0.32059565 -0.34963134 0.8803274
vn 0.32059565 -0.34963134 0.8803274
vn 0.32059565 -0.34963134 0.8803274
vn 0.32059565 -0.34963134 0.8803274
vn 0.32640278 -0.35543847 0.8758566
vn 0.32640278 -0.35543847 0.8758566
vn 0.26833144 -0.42512408 0.8644465
vn 0.26833144 -0.42512408 0.8644465
vn 0.26833144 -0.42512408 0.8644465
vn 0.26833144 -0.42512408 0.8644465
vn 0.28575286 -0.48900256 0.8241492
vn 0.28575286 -0.48900256 0.8241492
vn 0.29156 -0.40770268 0.8653157
vn 0.29156 -0.378667 0.87841
vn 0.33220994 -0.34963134 0.87601054
vn 0.33220994 -0.34963134 0.87601054
vn -0.3356105 -0.34963134 0.87471336
vn -0.353032 -0.36705273 0.8606048
vn -0.353032 -0.36705273 0.8606048
vn -0.32980347 -0.34963134 0.8769194
vn -0.39368188 -0.35543847 0.8477488
vn -0.39368188 -0.35543847 0.8477488
vn -0.39368188 -0.35543847 0.8477488
vn -0.39368188 -0.35543847 0.8477488
vn -0.52143884 -0.22768152 0.82235193
vn -0.52143884 -0.22768152 0.82235193
vn -0.52143884 -0.22768152 0.82235193
vn -0.52143884 -0.22768152 0.82235193
vn -0.4459461 -0.3612456 0.8189223
vn -0.44013894 -0.3902813 0.80867684
vn -0.4459461 -0.3612456 0.8189223
vn -0.44013894 -0.38447416 0.8114539
vn -0.4343319 -0.42512408 0.79411924
vn -0.4343319 -0.42512408 0.79411924
vn -0.42852473 -0.43673834 0.7909654
vn -0.42852473 -0.43673834 0.7909654
vn -0.3239963 -0.34963134 0.8790815
vn -0.3239963 -0.34963134 0.8790815
vn -0.3239963 -0.34963134 0.8790815
vn -0.3239963 -0.34963134 0.8790815
vn -0.3239963 -0.35543847 0.87674963
vn -0.3239963 -0.35543847 0.87674963
vn -0.26592493 -0.42512408 0.86518985
vn -0.26592493 -0.42512408 0.86518985
vn -0.26592493 -0.42512408 0.86518985
vn -0.26592493 -0.42512408 0.86518985
vn -0.28915346 -0.48900256 0.8229622
vn -0.29496062 -0.40770268 0.86416245
vn -0.28915346 -0.48900256 0.8229622
vn -0.29496062 -0.378667 0.8772739
vn -0.3356105 -0.34963134 0.87471336
vn -0.32980347 -0.34963134 0.8769194
g n_eyelashes_b_crease_mesh_0
f 3/3/3 2/2/2 1/1/1
f 6/6/6 5/5/5 4/4/4
f 9/9/9 8/8/8 7/7/7
f 12/12/12 11/11/11 10/10/10
f 15/15/15 14/14/14 13/13/13
f 16/16/16 15/15/15 13/13/13
f 19/19/19 18/18/18 17/17/17
f 20/20/20 19/19/19 17/17/17
f 23/23/23 22/22/22 21/21/21
f 24/24/24 23/23/23 21/21/21
f 27/27/27 26/26/26 25/25/25
f 28/28/28 27/27/27 25/25/25
f 27/27/27 28/28/28 29/29/29
f 28/28/28 30/30/30 29/29/29
f 30/30/30 31/31/31 29/29/29
f 31/31/31 32/32/32 29/29/29
f 35/35/35 34/34/34 33/33/33
f 36/36/36 35/35/35 33/33/33
f 35/35/35 36/36/36 37/37/37
f 38/38/38 35/35/35 37/37/37
f 41/41/41 40/40/40 39/39/39
f 42/42/42 41/41/41 39/39/39
f 45/45/45 44/44/44 43/43/43
f 46/46/46 45/45/45 43/43/43
f 46/46/46 47/47/47 45/45/45
f 47/47/47 48/48/48 45/45/45
f 51/51/51 50/50/50 49/49/49
f 52/52/52 51/51/51 49/49/49
f 55/55/55 54/54/54 53/53/53
f 56/56/56 55/55/55 53/53/53
f 59/59/59 58/58/58 57/57/57
f 60/60/60 59/59/59 57/57/57
f 63/63/63 62/62/62 61/61/61
f 62/62/62 64/64/64 61/61/61
f 64/64/64 62/62/62 65/65/65
f 66/66/66 64/64/64 65/65/65
f 67/67/67 66/66/66 65/65/65
f 68/68/68 67/67/67 65/65/65
f 71/71/71 70/70/70 69/69/69
f 70/70/70 72/72/72 69/69/69
f 72/72/72 70/70/70 73/73/73
f 70/70/70 74/74/74 73/73/73
f 77/77/77 76/76/76 75/75/75
f 78/78/78 77/77/77 75/75/75
f 81/81/81 80/80/80 79/79/79
f 80/80/80 82/82/82 79/79/79
f 83/83/83 82/82/82 80/80/80
f 84/84/84 83/83/83 80/80/80
