g pPlane2
v 2.020076 3.384759 -7.910896
v 2.0135663 3.6524389 -8.053536
v 1.932746 3.493828 -8.137289
v 2.0135663 3.6524389 -8.053536
v 1.9263815 3.5326662 -8.1049385
v 1.932746 3.493828 -8.137289
v 1.855427 3.4800756 -8.070493
v 1.8651769 3.5126367 -8.045246
v 1.7517084 3.5568194 -7.880923
v 1.8249422 3.806314 -8.387801
v 1.7520254 3.8438866 -8.441642
v 1.7384772 3.7849255 -8.375723
v 1.7384772 3.7849255 -8.375723
v 1.7520254 3.8438866 -8.441642
v 1.651377 3.8900805 -8.387072
v 1.3867843 4.7059617 -8.472879
v 2.3545294 5.886676 -8.943676
v 1.2496208 4.7606187 -8.254281
v 1.2496208 4.7606187 -8.254281
v 2.3545294 5.886676 -8.943676
v 1.11077 4.7579284 -7.813458
v 1.7009608 4.4361787 -6.760328
v 2.0879772 5.757627 -6.8333797
v 2.3625343 4.9871373 -6.302682
v 1.5883298 4.752255 -6.978033
v 1.4264044 5.206667 -7.2910204
v 1.4788872 4.0304227 -6.9168897
v 1.4233341 3.932597 -7.0620065
v 1.3035561 4.180756 -7.206055
v 1.7009608 4.4361787 -6.760328
v 1.5883298 4.752255 -6.978033
v 1.4264044 5.206667 -7.2910204
v 1.3266966 4.4591 -7.3987045
v 1.1233152 4.785043 -7.559745
v 1.4233341 3.932597 -7.0620065
v 1.4288782 3.9082096 -7.061303
v 1.4054257 3.8842027 -7.163837
v 1.6219702 3.518156 -7.3009796
v 1.619792 3.5371401 -7.222151
v 1.6501569 3.5083292 -7.2494445
v 1.5786914 3.7656987 -7.903466
v 1.7517084 3.5568194 -7.880923
v 1.6501569 3.5083292 -7.2494445
v 1.9342004 3.3773549 -7.8474708
v 1.9116632 3.3742132 -7.8717403
v 1.6219702 3.518156 -7.3009796
v 1.7517084 3.5568194 -7.880923
v 1.855427 3.4800756 -8.070493
v 1.9342004 3.3773549 -7.8474708
v 2.020076 3.384759 -7.910896
v 1.9116632 3.3742132 -7.8717403
v 1.855427 3.4800756 -8.070493
v 1.932746 3.493828 -8.137289
v 2.0135663 3.6524389 -8.053536
v 2.003276 4.0755873 -8.279022
v 1.9166114 3.8862042 -8.363616
v 1.9263815 3.5326662 -8.1049385
v 1.7517084 3.5568194 -7.880923
v 1.7384772 3.7849255 -8.375723
v 1.651377 3.8900805 -8.387072
v 1.5786914 3.7656987 -7.903466
v 1.9342004 3.3773549 -7.8474708
v 1.9908737 3.5234845 -7.750425
v 2.07675 3.5308874 -7.81385
v 2.020076 3.384759 -7.910896
v 1.7517084 3.5568194 -7.880923
v 1.8651769 3.5126367 -8.045246
v 1.8249422 3.806314 -8.387801
v 1.7384772 3.7849255 -8.375723
v 1.8651769 3.5126367 -8.045246
v 1.9263815 3.5326662 -8.1049385
v 1.9166114 3.8862042 -8.363616
v 1.8249422 3.806314 -8.387801
v 1.8651769 3.5126367 -8.045246
v 1.855427 3.4800756 -8.070493
v 1.932746 3.493828 -8.137289
v 1.9263815 3.5326662 -8.1049385
v 1.0965875 4.636807 -7.725935
v 1.1233152 4.785043 -7.559745
v 1.3266966 4.4591 -7.3987045
v 1.308887 4.354769 -7.483795
v 1.3035561 4.180756 -7.206055
v 1.459031 4.2630124 -7.984629
v 1.2354383 4.6394973 -8.166758
v 1.418915 4.1115017 -7.9599023
v 1.2917874 4.12813 -7.28468
v 1.4233341 3.932597 -7.0620065
v 1.4054257 3.8842027 -7.163837
v 1.5786914 3.7656987 -7.903466
v 1.459031 4.2630124 -7.984629
v 1.5262818 4.3455806 -8.313343
v 1.3726019 4.58484 -8.385356
v 1.2354383 4.6394973 -8.166758
v 1.5786914 3.7656987 -7.903466
v 1.651377 3.8900805 -8.387072
v 1.6113608 4.16582 -8.399764
v 1.418915 4.1115017 -7.9599023
v 1.418915 4.1115017 -7.9599023
v 1.6113608 4.16582 -8.399764
v 1.5262818 4.3455806 -8.313343
v 1.459031 4.2630124 -7.984629
v 1.651377 3.8900805 -8.387072
v 1.7551433 3.9666228 -8.524198
v 1.655188 4.1255035 -8.514023
v 1.6113608 4.16582 -8.399764
v 1.651377 3.8900805 -8.387072
v 1.8429807 3.9213176 -8.482103
v 1.7551433 3.9666228 -8.524198
v 1.7520254 3.8438866 -8.441642
v 1.9166114 3.8862042 -8.363616
v 1.8249422 3.806314 -8.387801
v 2.3625343 4.9871373 -6.302682
v 1.7322394 4.397233 -6.756775
v 1.7009608 4.4361787 -6.760328
v 2.3855505 4.955448 -6.2951293
v 1.9884984 4.1074114 -6.8755155
v 2.8148544 4.5715313 -6.430613
v 2.02403 4.0742316 -6.90336
v 2.8631423 4.5444856 -6.490036
v 1.4288782 3.9082096 -7.061303
v 1.4233341 3.932597 -7.0620065
v 1.4788872 4.0304227 -6.9168897
v 1.50137 3.998468 -6.9082894
v 1.7009608 4.4361787 -6.760328
v 1.7322394 4.397233 -6.756775
v 1.619792 3.5371401 -7.222151
v 1.7292433 3.7570598 -6.9754777
v 1.9884984 4.1074114 -6.8755155
v 1.7652925 3.7304149 -7.0018735
v 1.6501569 3.5083292 -7.2494445
v 2.02403 4.0742316 -6.90336
v 1.6501569 3.5083292 -7.2494445
v 1.8491986 3.5605724 -7.3751655
v 1.9908737 3.5234845 -7.750425
v 1.9342004 3.3773549 -7.8474708
v 2.8631423 4.5444856 -6.490036
v 2.901397 4.4449105 -6.656501
v 2.4150894 4.2442856 -6.788297
v 2.02403 4.0742316 -6.90336
v 2.0806317 3.9142952 -7.2328773
v 2.3933094 4.239392 -6.702339
v 2.4148488 3.8716633 -6.2060037
v 1.9948052 3.5870605 -6.4703054
v 2.001787 3.8965783 -6.9217186
v 1.7963232 3.3535619 -6.6995945
v 1.8217008 3.62554 -7.122038
v 2.001787 3.8965783 -6.9217186
v 2.0806317 3.9142952 -7.2328773
v 2.4150894 4.2442856 -6.788297
v 2.3933094 4.239392 -6.702339
v 1.8217008 3.62554 -7.122038
v 1.844372 3.6362875 -7.2924767
v 2.0806317 3.9142952 -7.2328773
v 2.001787 3.8965783 -6.9217186
v 1.844372 3.6362875 -7.2924767
v 1.8491986 3.5605724 -7.3751655
v 1.6501569 3.5083292 -7.2494445
v 2.0806317 3.9142952 -7.2328773
v 1.7652925 3.7304149 -7.0018735
v 2.02403 4.0742316 -6.90336
v 2.4148488 3.8716633 -6.2060037
v 2.7206972 3.5641844 -6.131386
v 2.2589004 3.251292 -6.42196
v 1.9948052 3.5870605 -6.4703054
v 1.9948052 3.5870605 -6.4703054
v 2.2589004 3.251292 -6.42196
v 2.0406897 2.9945822 -6.6740417
v 1.7963232 3.3535619 -6.6995945
v 1.7963232 3.3535619 -6.6995945
v 1.9034448 3.0006816 -6.928521
v 1.8072902 3.4662013 -7.242239
v 1.8217008 3.62554 -7.122038
v 1.8217008 3.62554 -7.122038
v 1.8072902 3.4662013 -7.242239
v 1.8491986 3.5605724 -7.3751655
v 1.844372 3.6362875 -7.2924767
v 2.0406897 2.9945822 -6.6740417
v 1.9713677 2.9526227 -6.816185
v 1.9034448 3.0006816 -6.928521
v 1.7963232 3.3535619 -6.6995945
v 1.9713677 2.9526227 -6.816185
v 2.52622 2.9896178 -7.653412
v 2.465708 3.0183153 -7.6829495
v 1.9034448 3.0006816 -6.928521
v 2.52622 2.9896178 -7.653412
v 2.7335806 3.131467 -7.686526
v 2.6730685 3.160165 -7.7160635
v 2.465708 3.0183153 -7.6829495
v 2.1384854 3.4137676 -7.8316355
v 2.465708 3.0183153 -7.6829495
v 2.6730685 3.160165 -7.7160635
v 2.2544718 3.4544933 -7.887548
v 1.9908737 3.5234845 -7.750425
v 2.07675 3.5308874 -7.81385
v 1.9908737 3.5234845 -7.750425
v 1.8491986 3.5605724 -7.3751655
v 1.8072902 3.4662013 -7.242239
v 2.1384854 3.4137676 -7.8316355
v 1.9034448 3.0006816 -6.928521
v 2.465708 3.0183153 -7.6829495
v 2.1384854 3.4137676 -7.8316355
v 1.8072902 3.4662013 -7.242239
v 1.4264044 5.206667 -7.2910204
v 1.4405868 5.327788 -7.3785434
v 2.1021595 5.878748 -6.920903
v 2.0879772 5.757627 -6.8333797
v 1.1233152 4.785043 -7.559745
v 1.1374977 4.906164 -7.647268
v 1.4405868 5.327788 -7.3785434
v 1.4264044 5.206667 -7.2910204
v 1.0965875 4.636807 -7.725935
v 1.11077 4.7579284 -7.813458
v 1.1374977 4.906164 -7.647268
v 1.1233152 4.785043 -7.559745
v 1.3726019 4.58484 -8.385356
v 1.3867843 4.7059617 -8.472879
v 1.2496208 4.7606187 -8.254281
v 1.2354383 4.6394973 -8.166758
v 1.2354383 4.6394973 -8.166758
v 1.2496208 4.7606187 -8.254281
v 1.11077 4.7579284 -7.813458
v 1.0965875 4.636807 -7.725935
v 1.4405868 5.327788 -7.3785434
v 2.3545294 5.886676 -8.943676
v 2.3545291 5.886676 -8.943676
v 2.1021595 5.878748 -6.920903
v 1.1374977 4.906164 -7.647268
v 2.3545291 5.886676 -8.943676
v 2.3545294 5.886676 -8.943676
v 1.4405868 5.327788 -7.3785434
v 1.11077 4.7579284 -7.813458
v 2.3545294 5.886676 -8.943676
v 2.3545291 5.886676 -8.943676
v 1.1374977 4.906164 -7.647268
vt 0 0.09267133
vt 0 0.44424033
vt 1 0.09267133
vt 0 0.44424033
vt 1 0.15459988
vt 1 0.09267133
vt 0 0
vt 0.26620328 0.2661978
vt 1.0000001 9.441212E-16
vt 0 6.0214746E-16
vt 0.6003809 0.91165835
vt 1 0
vt 0 0
vt 0.3072601 0.5762127
vt 1 0
vt 0 0
vt 0.5 1
vt 1 0
vt 0 0
vt 0.5 1
vt 1 0
vt 0 0
vt 1 1
vt 1 0
vt 0 0.410229
vt 0 1
vt 0 0.641769
vt 0 1
vt 0.3354275 1
vt 0 0
vt 0.410229 0
vt 1 0
vt 0.645311 1
vt 1 1
vt 0 0
vt 0 0.06097528
vt 0.0758277 0
vt 0.1353 1
vt 0 0.905188
vt 0 1
vt 1 0
vt 1 1
vt 0 0
vt 0 1
vt 0.144961 1
vt 0.1353 0
vt 1 0
vt 1 1
vt 0 0
vt 0 0.09267133
vt 0.144961 0
vt 1 0
vt 1 0.09267133
vt 0 0.44424033
vt 0 1
vt 1 1
vt 1 0.15459988
vt 0 0
vt 0 1
vt 1 1
vt 1 0
vt 0 0
vt 0.0040905885 0.9986313
vt 1 1
vt 1 0
vt 0 0
vt 0.16134243 0.1936938
vt 0.97430146 0.021417357
vt 0.9526766 0
vt 0.16134243 0.1936938
vt 0.39723274 0.39814287
vt 1 0.046869237
vt 0.97430146 0.021417357
vt 0.16134243 0.1936938
vt 0.8553496 0
vt 0 1.7961905E-15
vt 0.39723274 0.39814287
vt 1 0.154533
vt 1 0
vt 0.645311 0
vt 0.6285283 0.144718
vt 0.3354275 0
vt 0.529343 1
vt 1 1
vt 0.36807388 1
vt 0.33803207 0.0797812
vt 0 0
vt 0 0.0758277
vt 0 1
vt 0 0
vt 0 1
vt 1 1
vt 1 0
vt 0 0
vt 0 1
vt 1 1
vt 1 0
vt 0 0
vt 0 1
vt 1 1
vt 1 0
vt 0 0
vt 0 1
vt 1 1
vt 1 0
vt 0 0
vt 0.79885733 0.40326995
vt 0.91821665 0
vt 0.12226411 0.35838956
vt 0.6222379 0.99999994
vt 0.30318177 0.88870865
vt 0 0
vt 1 0.097901575
vt 1 0
vt 0 0.05385399
vt 1 0.891327
vt 0 0.91459
vt 1 1
vt 0 1
vt 1 0.06097528
vt 1 0
vt 0.641769 0
vt 0.62930936 0.10540894
vt 0 0
vt 0 0.097901575
vt 1 0.905188
vt 0.53738534 0.883088
vt 0 0.891327
vt 0.523566 1
vt 1 1
vt 0 1
vt 0 0
vt 0.010994243 1.0022855
vt 0.9586633 2.2207923
vt 1 0
vt 0 0
vt 0 1
vt 0.5401593 0.4900299
vt 1 0
vt 1 1
vt 0 0
vt 0 1
vt 0.60793513 1
vt 0.60793513 0
vt 1 1
vt 1 0
vt 0 0
vt 0 1
vt 1 1
vt 1 0
vt 0 0
vt 0 1
vt 1 1
vt 1 0
vt 0.855093 1
vt 0.9993058 0.9964849
vt 1 0
vt 0 1
vt 0.523566 0
vt 0 0
vt 0 0
vt 0 1
vt 1 1
vt 1 0
vt 0 0
vt 0 1
vt 1 1
vt 1 0
vt 0 0
vt 0 1
vt 1 1
vt 1 0
vt 0 0
vt 0 1
vt 1.1345524 0.40048283
vt 1 0
vt 0 0
vt 0 1
vt 1 1
vt 1 0
vt 0 0
vt 0 1
vt 1 1
vt 1 0
vt 0 0
vt 0 1
vt 1 1
vt 1 0
vt 0.12940966 0.24785292
vt 0.5221228 1
vt 0.85616565 0.81990117
vt 0.3494981 0.2032149
vt 0 0
vt 0.18253738 0
vt 0.60566217 0
vt 0.0646503 0.5689551
vt 0 0.8768128
vt 1 0
vt 0 0.70091325
vt 0.421221 0
vt 0.99999994 0.094052166
vt 0.71601975 0.70091325
vt 0 0
vt 0 1
vt 1 1
vt 1 0
vt 0 0
vt 0 1
vt 1 1
vt 1 0
vt 0 0
vt 0 1
vt 1 1
vt 1 0
vt 0 0
vt 0 1
vt 1 1
vt 1 0
vt 0 0
vt 0 1
vt 1 1
vt 1 0
vt 0 0
vt 0 1
vt 1 1
vt 1 0
vt 0 0
vt 0 1
vt 1 1
vt 1 0
vt 0 0
vt 0 1
vt 1 1
vt 1 0
vn 0.8728104 -0.2128199 -0.43921474
vn 0.8728104 -0.21281993 -0.4392148
vn 0.8728104 -0.2128199 -0.4392148
vn -0.3393405 0.56859076 -0.74936813
vn -0.33934057 0.5685908 -0.74936813
vn -0.3393405 0.56859076 -0.7493682
vn -0.57153803 0.60281456 -0.5567395
vn -0.5715381 0.6028145 -0.55673957
vn -0.57153803 0.60281444 -0.5567395
vn 0.09474273 -0.75158966 -0.65279156
vn 0.094742745 -0.75158966 -0.65279156
vn 0.094742745 -0.75158966 -0.65279156
vn -0.5789509 -0.5449947 -0.6064623
vn -0.578951 -0.5449947 -0.60646236
vn -0.57895094 -0.5449947 -0.6064624
vn -0.76302797 0.32341 -0.5596376
vn -0.777877 0.5284204 -0.34011662
vn -0.8080149 0.48720047 -0.33128163
vn -0.8080149 0.48720047 -0.33128163
vn -0.777877 0.5284204 -0.34011662
vn -0.8521585 0.43888187 -0.28497106
vn -0.67846924 0.23714252 0.6953006
vn -0.69596624 0.29006815 0.6568801
vn -0.6784692 0.23714252 0.69530064
vn -0.6784686 0.23714247 0.6953013
vn -0.7686561 0.26435608 0.58248067
vn -0.792641 0.14610013 0.59192485
vn -0.8790419 -0.16455917 0.4474434
vn -0.83333504 0.15002543 0.53201985
vn -0.7818453 0.16936791 0.600027
vn -0.85124 0.1523931 0.50216234
vn -0.7686561 0.26435608 0.58248067
vn -0.8575343 0.120114185 0.5002074
vn -0.8298859 0.020940293 0.55754
vn -0.94218063 -0.20656921 0.26386526
vn -0.8215311 -0.5235029 0.22590123
vn -0.8385292 -0.5406936 -0.06722513
vn -0.83444136 -0.5361211 -0.12760063
vn -0.8095378 -0.5432684 0.22250392
vn -0.5914259 -0.7875157 0.17330436
vn -0.8317609 -0.53193456 -0.15880646
vn -0.8317609 -0.53193456 -0.15880646
vn -0.26735255 -0.95897096 0.09432585
vn -0.26735255 -0.95897096 0.094325855
vn -0.6862877 -0.7105747 -0.15521806
vn -0.47288266 -0.8809384 -0.018154692
vn -0.73370904 -0.65226585 -0.19031617
vn -0.73370916 -0.65226585 -0.1903162
vn 0.10718839 -0.99381196 0.029126793
vn -0.11655469 -0.90422523 -0.41084275
vn -0.10827172 -0.91209453 -0.39542478
vn -0.11913183 -0.9017002 -0.41562524
vn -0.11913181 -0.9017002 -0.41562524
vn 0.8428224 -0.2688622 -0.46622247
vn 0.8428224 -0.26886222 -0.46622255
vn 0.8428224 -0.2688622 -0.46622247
vn 0.8428224 -0.2688622 -0.46622252
vn -0.7265864 -0.6311435 -0.27153268
vn -0.7265864 -0.63114357 -0.27153265
vn -0.7265864 -0.6311435 -0.27153265
vn -0.72658646 -0.6311435 -0.27153268
vn 0.5062527 -0.6046837 0.6148705
vn 0.50625277 -0.6046837 0.61487055
vn 0.5062527 -0.6046837 0.6148705
vn 0.5062527 -0.60468376 0.6148705
vn -0.47710097 -0.75923765 -0.44264308
vn -0.47710094 -0.75923765 -0.44264302
vn -0.47710097 -0.75923765 -0.44264302
vn -0.47710097 -0.75923765 -0.44264308
vn 0.25623873 -0.64717704 -0.71798575
vn 0.2562387 -0.64717704 -0.71798575
vn 0.25623873 -0.64717704 -0.7179858
vn 0.25623873 -0.64717704 -0.7179858
vn -0.6482393 0.49646154 -0.5773314
vn -0.6482393 0.49646163 -0.5773315
vn -0.6482394 0.4964616 -0.5773314
vn -0.6482394 0.4964616 -0.5773314
vn -0.8681368 -0.49214974 -0.064242505
vn -0.8298859 0.020940293 0.55754
vn -0.91433597 -0.19143742 0.35684943
vn -0.95083404 -0.29808092 -0.084037885
vn -0.982369 -0.060578857 0.17686562
vn -0.88013583 -0.4282128 -0.20492609
vn -0.82715017 -0.49577835 -0.2646251
vn -0.93929785 -0.29209644 -0.17999786
vn -0.939616 -0.32457188 -0.108511835
vn -0.9139855 -0.2709697 0.3020034
vn -0.89716285 -0.43332076 -0.085626625
vn -0.8805967 -0.45150807 -0.14384
vn -0.7485726 -0.5863936 -0.30948597
vn -0.7485726 -0.5863936 -0.309486
vn -0.78681225 -0.5029 -0.3577962
vn -0.82715017 -0.49577835 -0.2646251
vn -0.8916243 -0.32201082 -0.3183006
vn -0.8916243 -0.32201084 -0.31830063
vn -0.89162415 -0.32201084 -0.31830063
vn -0.8916243 -0.32201082 -0.3183006
vn -0.94164807 -0.06635222 -0.32999435
vn -0.94164807 -0.06635222 -0.32999435
vn -0.94164807 -0.06635222 -0.32999432
vn -0.94164807 -0.06635222 -0.32999435
vn -0.8142928 -0.2652375 -0.5163104
vn -0.81429267 -0.26523748 -0.5163104
vn -0.8142928 -0.2652375 -0.51631033
vn -0.8142928 -0.2652375 -0.5163104
vn -0.30767298 -0.5256545 -0.79311085
vn 0.09677689 -0.61593294 -0.7818318
vn -0.30767298 -0.5256545 -0.79311085
vn -0.003037038 -0.6033767 -0.7974506
vn 0.46282032 -0.60436064 -0.64849484
vn 0.4628203 -0.60436064 -0.64849484
vn -0.44123915 -0.20167792 0.8744335
vn -0.19652894 -0.47907144 0.8554922
vn -0.44123915 -0.2016779 0.8744335
vn -0.19761841 -0.47803885 0.85581887
vn -0.14369717 -0.5362048 0.8317665
vn -0.13793392 -0.54280317 0.8284558
vn 0.10554124 -0.76815844 0.63150114
vn 0.10554124 -0.7681585 0.6315011
vn -0.4914857 -0.566746 0.66124177
vn -0.7899817 -0.30514622 0.53180325
vn -0.46882385 -0.16931355 0.86691236
vn -0.16116922 -0.39510742 0.9043863
vn -0.38338354 -0.13407974 0.91380507
vn -0.05772783 -0.29559547 0.95356745
vn -0.36237895 -0.6340488 0.6831278
vn -0.16963477 -0.47203574 0.8651048
vn 0.03422429 -0.33660606 0.9410234
vn 0.11781282 -0.59817797 0.79265577
vn -0.059843186 -0.73039645 0.68039685
vn 0.27228862 -0.44683293 0.85217327
vn 0.592868 -0.7090608 0.38175973
vn 0.592868 -0.7090608 0.38175967
vn 0.592868 -0.7090608 0.38175973
vn 0.592868 -0.7090608 0.38175973
vn 0.19468117 -0.82211393 0.53500277
vn 0.19371103 -0.8216793 0.5360216
vn 0.21320862 -0.8349103 0.5074121
vn 0.23682646 -0.85580236 0.45990813
vn 0.2382444 -0.85702336 0.4568924
vn -0.6984189 0.57717997 0.42317167
vn -0.6984189 0.57718 0.42317167
vn -0.7620671 0.532086 0.36896914
vn -0.768053 0.5273133 0.36336663
vn -0.8651143 0.43175703 0.2552711
vn -0.8651143 0.43175694 0.25527105
vn -0.6182072 0.77794415 -0.11235126
vn -0.6182072 0.77794415 -0.11235128
vn -0.6182072 0.77794415 -0.11235127
vn -0.6182072 0.77794415 -0.11235126
vn -0.7618597 0.63595575 -0.12300432
vn -0.7618597 0.6359558 -0.12300432
vn -0.7618597 0.63595575 -0.1230043
vn -0.7618597 0.6359558 -0.1230043
vn 0.61888754 -0.6741162 0.40316942
vn 0.53164256 -0.6089715 0.5886509
vn 0.6195183 -0.6745443 0.40148115
vn 0.6467074 -0.6473205 0.4034176
vn 0.6363858 -0.6613733 0.39698672
vn 0.6657241 -0.6199725 0.4152656
vn -0.4195233 -0.20256497 0.88485456
vn -0.4195233 -0.20256497 0.88485456
vn -0.41952327 -0.20256497 0.8848547
vn -0.4195233 -0.20256497 0.88485456
vn -0.5387026 -0.31097215 0.78300434
vn -0.5387026 -0.31097215 0.78300434
vn -0.53870267 -0.31097215 0.78300434
vn -0.53870267 -0.31097218 0.78300434
vn -0.9882004 -0.14476754 -0.05002196
vn -0.9882004 -0.14476754 -0.050021958
vn -0.9882004 -0.14476754 -0.05002196
vn -0.9882004 -0.14476754 -0.05002196
vn -0.974381 0.16840322 -0.14907092
vn -0.9743809 0.1684032 -0.14907092
vn -0.9743809 0.1684032 -0.14907092
vn -0.974381 0.16840321 -0.14907093
vn -0.7849198 -0.46256155 0.41223517
vn -0.7849198 -0.46256155 0.41223517
vn -0.7849197 -0.46256152 0.4122351
vn -0.7849197 -0.46256152 0.4122351
vn -0.29213482 -0.9265878 -0.23683809
vn -0.29213485 -0.9265878 -0.23683812
vn -0.2921348 -0.9265878 -0.23683809
vn -0.29213482 -0.9265878 -0.23683809
vn 0.19095755 -0.47914332 -0.8567129
vn 0.19095756 -0.47914332 -0.8567129
vn 0.19095756 -0.4791434 -0.8567128
vn 0.19095753 -0.47914335 -0.8567128
vn -0.106033385 -0.37607205 -0.92050356
vn -0.0074334205 -0.4276085 -0.9039334
vn -0.0074334214 -0.42760852 -0.9039334
vn -0.03223024 -0.4151619 -0.9091764
vn -0.48313937 -0.12302816 -0.86685663
vn -0.48313934 -0.12302816 -0.86685663
vn -0.7955031 -0.49908984 -0.34363368
vn -0.7955032 -0.49908987 -0.3436337
vn -0.7955031 -0.49908984 -0.34363368
vn -0.7955031 -0.49908984 -0.34363374
vn -0.68768656 -0.57571745 -0.4423082
vn -0.6876865 -0.5757175 -0.4423082
vn -0.68768656 -0.5757174 -0.44230813
vn -0.68768656 -0.57571745 -0.4423082
vn -0.7686561 0.26435608 0.58248067
vn -0.6959339 0.7168336 -0.042728897
vn -0.64534 0.76377803 0.013390527
vn -0.69596624 0.29006815 0.6568801
vn -0.8298859 0.020940293 0.55754
vn -0.8007813 0.57804585 -0.15688317
vn -0.6959339 0.7168336 -0.042728897
vn -0.7686561 0.26435608 0.58248067
vn -0.8681368 -0.49214974 -0.064242505
vn -0.8521585 0.43888187 -0.28497106
vn -0.8007813 0.57804585 -0.15688317
vn -0.8298859 0.020940293 0.55754
vn -0.78681225 -0.5029 -0.3577962
vn -0.76302797 0.32341 -0.5596376
vn -0.8080149 0.48720047 -0.33128163
vn -0.82715017 -0.49577835 -0.2646251
vn -0.82715017 -0.49577835 -0.2646251
vn -0.8080149 0.48720047 -0.33128163
vn -0.8521585 0.43888187 -0.28497106
vn -0.8681368 -0.49214974 -0.064242505
vn -0.6959339 0.7168336 -0.042728897
vn -0.65884316 0.7427275 -0.11950581
vn -0.60804695 0.79055953 -0.07276406
vn -0.64534 0.76377803 0.013390527
vn -0.8007813 0.57804585 -0.15688317
vn -0.7505235 0.61633795 -0.23841548
vn -0.65884316 0.7427275 -0.11950581
vn -0.6959339 0.7168336 -0.042728897
vn -0.8521585 0.43888187 -0.28497106
vn -0.777877 0.5284204 -0.34011662
vn -0.7505235 0.61633795 -0.23841548
vn -0.8007813 0.57804585 -0.15688317
g pPlane2_0
f 3/3/3 2/2/2 1/1/1
f 6/6/6 5/5/5 4/4/4
f 9/9/9 8/8/8 7/7/7
f 12/12/12 11/11/11 10/10/10
f 15/15/15 14/14/14 13/13/13
f 18/18/18 17/17/17 16/16/16
f 21/21/21 20/20/20 19/19/19
f 24/24/24 23/23/23 22/22/22
f 23/23/23 25/25/25 22/22/22
f 23/23/23 26/26/26 25/25/25
f 29/29/29 28/28/28 27/27/27
f 29/29/29 27/27/27 30/30/30
f 31/31/31 29/29/29 30/30/30
f 31/31/31 32/32/32 29/29/29
f 32/32/32 33/33/33 29/29/29
f 32/32/32 34/34/34 33/33/33
f 37/37/37 36/36/36 35/35/35
f 37/37/37 38/38/38 36/36/36
f 38/38/38 39/39/39 36/36/36
f 38/38/38 40/40/40 39/39/39
f 37/37/37 41/41/41 38/38/38
f 41/41/41 42/42/42 38/38/38
f 45/45/45 44/44/44 43/43/43
f 46/46/46 45/45/45 43/43/43
f 46/46/46 47/47/47 45/45/45
f 47/47/47 48/48/48 45/45/45
f 51/51/51 50/50/50 49/49/49
f 51/51/51 52/52/52 50/50/50
f 52/52/52 53/53/53 50/50/50
f 56/56/56 55/55/55 54/54/54
f 57/57/57 56/56/56 54/54/54
f 60/60/60 59/59/59 58/58/58
f 61/61/61 60/60/60 58/58/58
f 64/64/64 63/63/63 62/62/62
f 65/65/65 64/64/64 62/62/62
f 68/68/68 67/67/67 66/66/66
f 69/69/69 68/68/68 66/66/66
f 72/72/72 71/71/71 70/70/70
f 73/73/73 72/72/72 70/70/70
f 76/76/76 75/75/75 74/74/74
f 77/77/77 76/76/76 74/74/74
f 80/80/80 79/79/79 78/78/78
f 81/81/81 80/80/80 78/78/78
f 82/82/82 80/80/80 81/81/81
f 81/81/81 78/78/78 83/83/83
f 78/78/78 84/84/84 83/83/83
f 81/81/81 83/83/83 85/85/85
f 86/86/86 82/82/82 81/81/81
f 86/86/86 81/81/81 85/85/85
f 82/82/82 86/86/86 87/87/87
f 86/86/86 88/88/88 87/87/87
f 86/86/86 85/85/85 88/88/88
f 85/85/85 89/89/89 88/88/88
f 92/92/92 91/91/91 90/90/90
f 93/93/93 92/92/92 90/90/90
f 96/96/96 95/95/95 94/94/94
f 97/97/97 96/96/96 94/94/94
f 100/100/100 99/99/99 98/98/98
f 101/101/101 100/100/100 98/98/98
f 104/104/104 103/103/103 102/102/102
f 105/105/105 104/104/104 102/102/102
f 108/108/108 107/107/107 106/106/106
f 107/107/107 109/109/109 106/106/106
f 107/107/107 110/110/110 109/109/109
f 110/110/110 111/111/111 109/109/109
f 114/114/114 113/113/113 112/112/112
f 113/113/113 115/115/115 112/112/112
f 113/113/113 116/116/116 115/115/115
f 116/116/116 117/117/117 115/115/115
f 116/116/116 118/118/118 117/117/117
f 118/118/118 119/119/119 117/117/117
f 122/122/122 121/121/121 120/120/120
f 123/123/123 122/122/122 120/120/120
f 122/122/122 123/123/123 124/124/124
f 123/123/123 125/125/125 124/124/124
f 123/123/123 120/120/120 126/126/126
f 123/123/123 127/127/127 125/125/125
f 127/127/127 123/123/123 126/126/126
f 127/127/127 128/128/128 125/125/125
f 127/127/127 126/126/126 129/129/129
f 127/127/127 129/129/129 128/128/128
f 126/126/126 130/130/130 129/129/129
f 129/129/129 131/131/131 128/128/128
f 134/134/134 133/133/133 132/132/132
f 135/135/135 134/134/134 132/132/132
f 138/138/138 137/137/137 136/136/136
f 139/139/139 138/138/138 136/136/136
f 138/138/138 139/139/139 140/140/140
f 143/143/143 142/142/142 141/141/141
f 144/144/144 143/143/143 141/141/141
f 145/145/145 143/143/143 144/144/144
f 146/146/146 145/145/145 144/144/144
f 149/149/149 148/148/148 147/147/147
f 150/150/150 149/149/149 147/147/147
f 153/153/153 152/152/152 151/151/151
f 154/154/154 153/153/153 151/151/151
f 157/157/157 156/156/156 155/155/155
f 157/157/157 155/155/155 158/158/158
f 159/159/159 157/157/157 158/158/158
f 159/159/159 158/158/158 160/160/160
f 163/163/163 162/162/162 161/161/161
f 164/164/164 163/163/163 161/161/161
f 167/167/167 166/166/166 165/165/165
f 168/168/168 167/167/167 165/165/165
f 171/171/171 170/170/170 169/169/169
f 172/172/172 171/171/171 169/169/169
f 175/175/175 174/174/174 173/173/173
f 176/176/176 175/175/175 173/173/173
f 179/179/179 178/178/178 177/177/177
f 180/180/180 179/179/179 177/177/177
f 183/183/183 182/182/182 181/181/181
f 184/184/184 183/183/183 181/181/181
f 187/187/187 186/186/186 185/185/185
f 188/188/188 187/187/187 185/185/185
f 191/191/191 190/190/190 189/189/189
f 192/192/192 191/191/191 189/189/189
f 192/192/192 189/189/189 193/193/193
f 194/194/194 192/192/192 193/193/193
f 197/197/197 196/196/196 195/195/195
f 198/198/198 197/197/197 195/195/195
f 201/201/201 200/200/200 199/199/199
f 202/202/202 201/201/201 199/199/199
f 205/205/205 204/204/204 203/203/203
f 206/206/206 205/205/205 203/203/203
f 209/209/209 208/208/208 207/207/207
f 210/210/210 209/209/209 207/207/207
f 213/213/213 212/212/212 211/211/211
f 214/214/214 213/213/213 211/211/211
f 217/217/217 216/216/216 215/215/215
f 218/218/218 217/217/217 215/215/215
f 221/221/221 220/220/220 219/219/219
f 222/222/222 221/221/221 219/219/219
f 225/225/225 224/224/224 223/223/223
f 226/226/226 225/225/225 223/223/223
f 229/229/229 228/228/228 227/227/227
f 230/230/230 229/229/229 227/227/227
f 233/233/233 232/232/232 231/231/231
f 234/234/234 233/233/233 231/231/231
