g rockGenericGroup02Geo
v 0.09546563 0.020944387 -0.019512584
v 0.09518707 -1.3507626E-09 -0.001347487
v 0.14290391 2.7082978E-09 0.008418579
v 0.14869274 0.017595556 0.0033839631
v 0.17339985 -2.3655287E-09 0.04997465
v 0.0405807 0.022905953 0.0053331424
v 0.053854883 8.7968886E-09 0.016357083
v 0.17837323 0.013923838 0.04899679
v 0.15709873 -2.3655287E-09 0.10634568
v 0.018530302 0.016013652 0.043545417
v 0.025256595 4.7378284E-09 0.048936628
v 0.16178092 0.01285328 0.11208823
v 0.109659575 -1.3507626E-09 0.14164944
v 0.014350462 0.012007063 0.10128057
v 0.021117143 5.7525935E-09 0.09952075
v 0.10944919 0.01145348 0.15344821
v 0.0534762 3.7230636E-09 0.13319822
v 0.04651681 0.010589264 0.14122236
v 0.11719037 0.06612072 0.024001682
v 0.15299629 0.043050073 0.059238117
v 0.15472981 0.030949628 0.10849682
v 0.10738916 0.031447787 0.1492486
v 0.048102234 0.031912584 0.13727519
v 0.024305668 0.037216872 0.0950733
v 0.0894521 0.07151064 0.020260911
v 0.1248499 0.061088555 0.07222155
v 0.09861123 0.0670954 0.0789207
v 0.06506648 0.061881013 0.082699545
v 0.029130954 0.041035216 0.044011403
v 0.06637168 0.066577226 0.029802725
v -0.061323423 0.013836449 -0.11802896
v -0.05061589 6.1634933E-09 -0.11368166
v -0.041274995 3.9186433E-16 -0.14260015
v -0.044179924 0.011701576 -0.14858505
v -0.011857071 3.2871963E-09 -0.14936788
v -0.047020063 0.015086942 -0.07426117
v -0.04030304 4.5198947E-09 -0.08098304
v -0.012165909 0.009360863 -0.15344821
v 0.02386302 3.2871963E-09 -0.122539096
v -0.022008343 0.010693117 -0.050459146
v -0.01841505 4.5198947E-09 -0.053586874
v 0.028274288 0.008678385 -0.12419311
v 0.046886224 1.6435985E-09 -0.085151106
v 0.01746829 0.008138924 -0.035212446
v 0.01628932 2.0544981E-09 -0.039766766
v 0.055924177 0.0077860155 -0.08276245
v 0.0399117 2.4653974E-09 -0.053131826
v 0.0457182 0.00723508 -0.047458697
v -0.043265197 0.028264293 -0.14011955
v -0.010568695 0.02792878 -0.13767871
v 0.024138192 0.020214774 -0.122076474
v 0.052130595 0.020532347 -0.08305025
v 0.042410184 0.020828655 -0.049761318
v 0.012274427 0.02421013 -0.043883912
v -0.05771161 0.032329533 -0.11656618
v -0.0044642924 0.039428283 -0.11685104
v -0.00076159474 0.04325763 -0.09809035
v 0.0019152832 0.03993347 -0.07482436
v -0.022762354 0.026644317 -0.058878154
v -0.047208574 0.03194991 -0.08350193
v 0.0030580806 0.026408788 0.12827428
v -0.012503357 1.6435985E-09 0.10977112
v -0.06898801 1.6435985E-09 0.1415676
v -0.07041692 0.021952096 0.15167703
v -0.13588399 -1.6435976E-09 0.12638822
v 0.03656328 0.029019276 0.055433795
v 0.013606548 6.5743926E-09 0.05592735
v -0.14003102 0.017065702 0.13170834
v -0.16865791 -3.2871956E-09 0.05550491
v 0.02540637 0.01984687 -0.002209835
v 0.013943157 4.930795E-09 -0.0017631935
v -0.17837328 0.015640981 0.053816184
v -0.15175845 1.6435985E-09 -0.021355111
v -0.02074355 0.014514819 -0.063893415
v -0.026010636 3.2871963E-09 -0.056222517
v -0.16183567 0.013778101 -0.033399384
v -0.08790964 -3.2871956E-09 -0.061857145
v -0.087912165 0.012627984 -0.07599282
v -0.060958203 0.056527875 0.13350582
v -0.12345299 0.05582747 0.099281736
v -0.16815382 0.039723963 0.051276907
v -0.15610322 0.040386923 -0.030974962
v -0.0860625 0.041005477 -0.07064306
v -0.025337419 0.048064537 -0.04897155
v -0.055521972 0.08088807 -0.0009860587
v 0.014343739 0.053146064 0.0065665934
v -0.0011571216 0.06501433 0.11918102
v 0.024340162 0.06422185 0.064752184
v -0.010702505 0.08713788 0.05332768
v -0.056728713 0.08653036 0.10347694
v -0.025583133 0.09370338 0.08304773
v -0.10648037 0.07983345 0.061684
v -0.085948035 0.087827474 0.03206768
v -0.1400554 0.06475229 0.03336973
v -0.12417082 0.067102544 -0.011964972
v -0.1015608 0.066730626 -0.030628042
vt 1.1249247 -0.18752483
vt 1.1429476 -0.13439983
vt 1.285186 -0.2705448
vt 1.2523806 -0.29484555
vt 1.316639 -0.4672601
vt 0.95810324 -0.18429893
vt 0.9548248 -0.11406785
vt 1.2824883 -0.45771545
vt 1.195002 -0.6468154
vt 0.83767086 -0.24597117
vt 0.79815745 -0.22981033
vt 1.1704009 -0.62130964
vt 0.9835384 -0.7013976
vt 0.76454437 -0.41900218
vt 0.7328539 -0.42293411
vt 0.97865367 -0.6660787
vt 0.79690635 -0.5997435
vt 0.8159957 -0.57055306
vt 1.1158903 -0.34033415
vt 1.1855876 -0.45170242
vt 1.1402661 -0.580069
vt 0.98304856 -0.6159224
vt 0.85428596 -0.5325143
vt 0.8333354 -0.40771094
vt 1.0566989 -0.3107841
vt 1.0970955 -0.44966322
vt 1.0313482 -0.43891636
vt 0.9500611 -0.4156394
vt 0.89328706 -0.28542322
vt 1.0005462 -0.30789977
vt 0.36593238 0.73405385
vt 0.33176076 0.72264105
vt 0.3767716 0.83585155
vt 0.40169185 0.8186027
vt 0.48411092 0.8815742
vt 0.41071466 0.62323016
vt 0.37597778 0.60694945
vt 0.47996286 0.8600956
vt 0.62584203 0.8326193
vt 0.4861817 0.56136453
vt 0.48284218 0.534771
vt 0.61661005 0.81263006
vt 0.7066775 0.71423006
vt 0.60705674 0.5528048
vt 0.610703 0.53520507
vt 0.6881895 0.69841224
vt 0.69205296 0.5965349
vt 0.67037994 0.6054252
vt 0.42362058 0.7877625
vt 0.49632376 0.804464
vt 0.59398013 0.79015344
vt 0.65765786 0.69655216
vt 0.64298135 0.61888474
vt 0.579377 0.58961856
vt 0.40824798 0.7313807
vt 0.51899433 0.75445926
vt 0.5313634 0.7134321
vt 0.541195 0.6606377
vt 0.48807907 0.60574675
vt 0.4315242 0.66132975
vt 0.43474418 0.07774031
vt 0.47785363 0.024694264
vt 0.22830078 -0.03608942
vt 0.22319558 0.013669014
vt -0.008274525 0.06433886
vt 0.55242795 0.2634728
vt 0.6282084 0.21941715
vt 0.022673547 0.09303281
vt -0.120991915 0.3205343
vt 0.5664485 0.44040373
vt 0.6082143 0.47115552
vt -0.07958236 0.33030844
vt -0.0364066 0.59026575
vt 0.42545375 0.6398633
vt 0.44139284 0.67437065
vt 0.0036445856 0.5737184
vt 0.20338842 0.72512066
vt 0.22202954 0.6869775
vt 0.25090492 0.10577074
vt 0.09391612 0.19610739
vt -0.01402545 0.3353599
vt 0.055199325 0.5347847
vt 0.23737161 0.61919355
vt 0.39126402 0.557004
vt 0.30105036 0.43304798
vt 0.485637 0.407309
vt 0.3869055 0.15420207
vt 0.46896657 0.26424253
vt 0.38236395 0.30531335
vt 0.2641878 0.20105523
vt 0.33682096 0.24680927
vt 0.15935484 0.2950706
vt 0.21783653 0.3616147
vt 0.081382394 0.3672683
vt 0.13908458 0.46977854
vt 0.19818878 0.51015526
vn -0.016386146 0.24680701 -0.968926
vn -0.08645139 -0.5881269 -0.80413496
vn 0.47085634 -0.48398587 -0.73759884
vn 0.62297505 0.36014563 -0.69440424
vn 0.90335524 -0.3975611 -0.1609175
vn -0.60101813 0.19360088 -0.7754327
vn -0.46235672 -0.58577836 -0.66565007
vn 0.91502094 0.35190696 -0.19722642
vn 0.7480871 -0.48152116 0.4566215
vn -0.9382565 0.08089216 -0.33634967
vn -0.79611623 -0.5155315 -0.31690115
vn 0.8470455 0.107378624 0.5205611
vn 0.23966019 -0.6522187 0.7191479
vn -0.96391076 0.0348006 0.2639412
vn -0.8119254 -0.54574376 0.20722188
vn 0.23349082 -0.11026886 0.9660863
vn -0.31943747 -0.67414904 0.665945
vn -0.5058458 -0.09014408 0.857901
vn 0.42819977 0.7705009 -0.47220057
vn 0.7255187 0.67667633 -0.1254263
vn 0.5982866 0.68307096 0.41888797
vn 0.14591636 0.7223256 0.67598385
vn -0.324109 0.6934049 0.6435394
vn -0.7369816 0.65076494 0.18265569
vn -0.030211007 0.83632016 -0.5474084
vn 0.3617016 0.8951387 0.26057374
vn 0.08465835 0.9417639 0.325444
vn -0.26827553 0.924028 0.27239764
vn -0.7144451 0.67849 -0.17093728
vn -0.42511287 0.8344631 -0.35064295
vn -0.98843926 -0.14055094 -0.056863077
vn -0.83499926 -0.54710096 0.058794145
vn -0.5915752 -0.55112773 -0.58847004
vn -0.50656444 0.099680565 -0.8564206
vn 0.26406327 -0.42847577 -0.864106
vn -0.8394222 -0.082080945 0.53724575
vn -0.7674633 -0.5083546 0.39060947
vn 0.24711214 0.20102328 -0.9479057
vn 0.62862843 -0.4563751 -0.62972075
vn -0.5335568 0.030239314 0.8452235
vn -0.52911586 -0.45138323 0.7185329
vn 0.7154866 0.053067707 -0.69660807
vn 0.719541 -0.65236807 -0.23806828
vn -0.020322738 0.072879955 0.9971336
vn -0.08737589 -0.5160692 0.85207856
vn 0.97856724 -0.107523315 -0.17562737
vn 0.5579343 -0.72779965 0.39876917
vn 0.7558561 -0.060882535 0.651901
vn -0.32212484 0.77365863 -0.54560786
vn 0.25668955 0.6483596 -0.7167568
vn 0.5517977 0.6597287 -0.5101739
vn 0.634075 0.7666948 -0.10063741
vn 0.50590396 0.77547795 0.37774992
vn -0.07640983 0.6991047 0.71092474
vn -0.5739163 0.8169167 -0.057160117
vn 0.1683681 0.93454015 -0.31350756
vn 0.14207624 0.98706126 -0.074326366
vn 0.07470813 0.9723895 0.22108212
vn -0.3291147 0.7161529 0.6154742
vn -0.5071219 0.80346406 0.3118861
vn 0.6564009 -0.11387963 0.7457676
vn 0.58224106 -0.60912865 0.5384772
vn 0.12942351 -0.5082783 0.8514122
vn -0.05438936 0.18010546 0.9821425
vn -0.56662 -0.42459288 0.70616055
vn 0.9860924 -0.10417613 0.12949613
vn 0.7702205 -0.6063817 0.19763997
vn -0.6047435 0.29236177 0.74081707
vn -0.8451154 -0.5144932 0.14517802
vn 0.9175702 -0.002777373 -0.39756408
vn 0.7946444 -0.54219484 -0.27306598
vn -0.9801272 0.11246878 0.16340545
vn -0.6259949 -0.68832767 -0.36651802
vn 0.5553629 0.03823735 -0.83072865
vn 0.46724525 -0.5807579 -0.6666348
vn -0.809479 -0.110914044 -0.5765778
vn -0.18628605 -0.71186626 -0.6771588
vn -0.17862438 -0.08993013 -0.9797989
vn -0.10447499 0.6263041 0.7725466
vn -0.50826 0.69440925 0.5093796
vn -0.78432095 0.6018007 0.15058741
vn -0.70557284 0.5145422 -0.48725072
vn -0.08830731 0.5914146 -0.8015178
vn 0.398309 0.68060887 -0.6149158
vn 0.16123945 0.9165158 -0.36606088
vn 0.63090074 0.6629506 -0.4030642
vn 0.54560184 0.5294126 0.64964676
vn 0.8471354 0.5077381 0.15672731
vn 0.33855864 0.92680883 -0.1624911
vn -0.17588732 0.8821153 0.43696243
vn 0.16192359 0.9679511 0.19196738
vn -0.39185676 0.8953215 0.21177283
vn -0.16355628 0.9814321 -0.100202374
vn -0.5584782 0.8293695 0.015757112
vn -0.4188901 0.86143595 -0.2871571
vn -0.12540369 0.86409354 -0.48745897
g rockGenericGroup02Geo_0
f 3/3/3 2/2/2 1/1/1
f 4/4/4 3/3/3 1/1/1
f 3/3/3 4/4/4 5/5/5
f 6/6/6 1/1/1 2/2/2
f 7/7/7 6/6/6 2/2/2
f 4/4/4 8/8/8 5/5/5
f 5/5/5 8/8/8 9/9/9
f 6/6/6 7/7/7 10/10/10
f 7/7/7 11/11/11 10/10/10
f 8/8/8 12/12/12 9/9/9
f 9/9/9 12/12/12 13/13/13
f 10/10/10 11/11/11 14/14/14
f 11/11/11 15/15/15 14/14/14
f 12/12/12 16/16/16 13/13/13
f 17/17/17 13/13/13 16/16/16
f 15/15/15 17/17/17 18/18/18
f 14/14/14 15/15/15 18/18/18
f 18/18/18 17/17/17 16/16/16
f 4/4/4 19/19/19 8/8/8
f 12/12/12 8/8/8 20/20/20
f 19/19/19 20/20/20 8/8/8
f 16/16/16 12/12/12 21/21/21
f 21/21/21 12/12/12 20/20/20
f 18/18/18 16/16/16 22/22/22
f 22/22/22 16/16/16 21/21/21
f 14/14/14 18/18/18 23/23/23
f 23/23/23 18/18/18 22/22/22
f 10/10/10 14/14/14 24/24/24
f 24/24/24 14/14/14 23/23/23
f 19/19/19 4/4/4 25/25/25
f 4/4/4 1/1/1 25/25/25
f 26/26/26 20/20/20 19/19/19
f 21/21/21 20/20/20 26/26/26
f 26/26/26 19/19/19 25/25/25
f 26/26/26 27/27/27 21/21/21
f 27/27/27 22/22/22 21/21/21
f 27/27/27 26/26/26 25/25/25
f 28/28/28 23/23/23 22/22/22
f 27/27/27 28/28/28 22/22/22
f 28/28/28 24/24/24 23/23/23
f 27/27/27 25/25/25 28/28/28
f 29/29/29 10/10/10 24/24/24
f 29/29/29 24/24/24 28/28/28
f 10/10/10 29/29/29 6/6/6
f 1/1/1 6/6/6 30/30/30
f 25/25/25 1/1/1 30/30/30
f 25/25/25 30/30/30 28/28/28
f 29/29/29 30/30/30 6/6/6
f 30/30/30 29/29/29 28/28/28
f 33/33/33 32/32/32 31/31/31
f 34/34/34 33/33/33 31/31/31
f 33/33/33 34/34/34 35/35/35
f 36/36/36 31/31/31 32/32/32
f 37/37/37 36/36/36 32/32/32
f 34/34/34 38/38/38 35/35/35
f 35/35/35 38/38/38 39/39/39
f 36/36/36 37/37/37 40/40/40
f 37/37/37 41/41/41 40/40/40
f 38/38/38 42/42/42 39/39/39
f 39/39/39 42/42/42 43/43/43
f 40/40/40 41/41/41 44/44/44
f 41/41/41 45/45/45 44/44/44
f 42/42/42 46/46/46 43/43/43
f 47/47/47 43/43/43 46/46/46
f 45/45/45 47/47/47 48/48/48
f 44/44/44 45/45/45 48/48/48
f 48/48/48 47/47/47 46/46/46
f 34/34/34 49/49/49 38/38/38
f 42/42/42 38/38/38 50/50/50
f 49/49/49 50/50/50 38/38/38
f 46/46/46 42/42/42 51/51/51
f 51/51/51 42/42/42 50/50/50
f 48/48/48 46/46/46 52/52/52
f 52/52/52 46/46/46 51/51/51
f 44/44/44 48/48/48 53/53/53
f 53/53/53 48/48/48 52/52/52
f 40/40/40 44/44/44 54/54/54
f 54/54/54 44/44/44 53/53/53
f 49/49/49 34/34/34 55/55/55
f 34/34/34 31/31/31 55/55/55
f 56/56/56 50/50/50 49/49/49
f 51/51/51 50/50/50 56/56/56
f 56/56/56 49/49/49 55/55/55
f 56/56/56 57/57/57 51/51/51
f 57/57/57 52/52/52 51/51/51
f 57/57/57 56/56/56 55/55/55
f 58/58/58 53/53/53 52/52/52
f 57/57/57 58/58/58 52/52/52
f 58/58/58 54/54/54 53/53/53
f 57/57/57 55/55/55 58/58/58
f 59/59/59 40/40/40 54/54/54
f 59/59/59 54/54/54 58/58/58
f 40/40/40 59/59/59 36/36/36
f 31/31/31 36/36/36 60/60/60
f 55/55/55 31/31/31 60/60/60
f 55/55/55 60/60/60 58/58/58
f 59/59/59 60/60/60 36/36/36
f 60/60/60 59/59/59 58/58/58
f 63/63/63 62/62/62 61/61/61
f 64/64/64 63/63/63 61/61/61
f 63/63/63 64/64/64 65/65/65
f 66/66/66 61/61/61 62/62/62
f 67/67/67 66/66/66 62/62/62
f 64/64/64 68/68/68 65/65/65
f 65/65/65 68/68/68 69/69/69
f 66/66/66 67/67/67 70/70/70
f 67/67/67 71/71/71 70/70/70
f 68/68/68 72/72/72 69/69/69
f 69/69/69 72/72/72 73/73/73
f 70/70/70 71/71/71 74/74/74
f 71/71/71 75/75/75 74/74/74
f 72/72/72 76/76/76 73/73/73
f 77/77/77 73/73/73 76/76/76
f 75/75/75 77/77/77 78/78/78
f 74/74/74 75/75/75 78/78/78
f 78/78/78 77/77/77 76/76/76
f 64/64/64 79/79/79 68/68/68
f 72/72/72 68/68/68 80/80/80
f 79/79/79 80/80/80 68/68/68
f 76/76/76 72/72/72 81/81/81
f 81/81/81 72/72/72 80/80/80
f 78/78/78 76/76/76 82/82/82
f 82/82/82 76/76/76 81/81/81
f 74/74/74 78/78/78 83/83/83
f 83/83/83 78/78/78 82/82/82
f 70/70/70 74/74/74 84/84/84
f 84/84/84 74/74/74 83/83/83
f 85/85/85 84/84/84 83/83/83
f 86/86/86 70/70/70 84/84/84
f 86/86/86 84/84/84 85/85/85
f 70/70/70 86/86/86 66/66/66
f 79/79/79 64/64/64 87/87/87
f 64/64/64 61/61/61 87/87/87
f 61/61/61 66/66/66 88/88/88
f 86/86/86 88/88/88 66/66/66
f 87/87/87 61/61/61 88/88/88
f 89/89/89 88/88/88 86/86/86
f 89/89/89 86/86/86 85/85/85
f 88/88/88 89/89/89 87/87/87
f 79/79/79 87/87/87 90/90/90
f 80/80/80 79/79/79 90/90/90
f 89/89/89 91/91/91 87/87/87
f 87/87/87 91/91/91 90/90/90
f 91/91/91 89/89/89 85/85/85
f 92/92/92 80/80/80 90/90/90
f 92/92/92 90/90/90 91/91/91
f 81/81/81 80/80/80 92/92/92
f 93/93/93 92/92/92 91/91/91
f 93/93/93 91/91/91 85/85/85
f 94/94/94 81/81/81 92/92/92
f 92/92/92 93/93/93 94/94/94
f 82/82/82 81/81/81 94/94/94
f 93/93/93 95/95/95 94/94/94
f 93/93/93 85/85/85 95/95/95
f 95/95/95 82/82/82 94/94/94
f 85/85/85 96/96/96 95/95/95
f 82/82/82 95/95/95 96/96/96
f 96/96/96 85/85/85 83/83/83
f 83/83/83 82/82/82 96/96/96
