g rockGenericGroup01Geo
v -0.047499724 0.016961634 0.05619412
v -0.03941858 0 0.068488434
v -0.0030109643 3.2871963E-09 0.05331243
v -0.0014246987 0.014249612 0.047305327
v 0.036330204 -8.217991E-10 0.06726886
v -0.072955765 0.01855019 0.09781716
v -0.059047088 8.217991E-09 0.09916003
v 0.03921661 0.011276103 0.06435015
v 0.05106778 -8.217991E-10 0.11244788
v -0.07033443 0.012968522 0.13344954
v -0.06337504 4.930794E-09 0.13399924
v 0.0568179 0.010409121 0.11416332
v 0.035359085 0 0.15768728
v -0.046856795 0.009723821 0.17402554
v -0.043124646 5.752593E-09 0.16976678
v 0.0405883 0.009275506 0.16568635
v -0.00612123 4.1089954E-09 0.17759746
v -0.0071310564 0.008575627 0.1861402
v -0.01314289 0.053547304 0.07545424
v 0.026879063 0.034863736 0.082760446
v 0.050460204 0.025064297 0.11496687
v 0.037297104 0.025467727 0.16381092
v -0.0078657055 0.025844136 0.18277462
v -0.04301356 0.030139767 0.16533658
v -0.033425264 0.057912298 0.08557313
v 0.013934765 0.049472053 0.104267865
v -0.00059159275 0.05433664 0.12069722
v -0.021341844 0.050113816 0.13849625
v -0.06302159 0.033232026 0.12893687
v -0.044542618 0.053917006 0.10246932
v -0.16540371 0.013836449 0.057238664
v -0.16167575 6.1634924E-09 0.046299603
v -0.19108108 0 0.038628083
v -0.1968901 0.011701576 0.041870143
v -0.19951987 3.2871963E-09 0.009645422
v -0.12252563 0.015086942 0.04045576
v -0.1296205 4.5198947E-09 0.034134455
v -0.20357601 0.009360863 0.010186311
v -0.17477745 3.2871963E-09 -0.027550383
v -0.100192465 0.010693117 0.014124634
v -0.1035207 4.5198947E-09 0.010715418
v -0.17668094 0.008678385 -0.031860348
v -0.138767 1.6435981E-09 -0.05267413
v -0.08722798 0.008138924 -0.026159247
v -0.0917074 2.0544977E-09 -0.024722239
v -0.13689883 0.0077860155 -0.06183316
v -0.106401235 2.465397E-09 -0.047541797
v -0.101069346 0.00723508 -0.05366314
v -0.18849087 0.028264293 0.040472593
v -0.1879237 0.02792878 0.0076905666
v -0.17433143 0.020214774 -0.02785186
v -0.13696952 0.020532347 -0.05803011
v -0.10317903 0.020828655 -0.050228357
v -0.09558851 0.02421013 -0.020478653
v -0.16414984 0.032329533 0.053548794
v -0.1674789 0.039428283 0.00040487645
v -0.14896037 0.04325763 -0.0043643448
v -0.12588583 0.03993347 -0.008367467
v -0.108554676 0.026644317 0.015358307
v -0.13174029 0.03194991 0.041172422
v 0.033857804 0.02084877 0.006753847
v 0.050039425 2.3356734E-09 -0.0033688236
v 0.031418227 2.3356734E-09 -0.051032428
v 0.023672866 0.017330376 -0.05326499
v 0.050667208 -2.5944719E-10 -0.10165042
v 0.08710089 0.022909654 0.040984128
v 0.08924849 6.2283543E-09 0.022984074
v 0.0469662 0.013472747 -0.105479345
v 0.10969411 -1.5570079E-09 -0.119447656
v 0.13339221 0.015668375 0.03862429
v 0.13430864 4.930794E-09 0.02961422
v 0.11208654 0.012347983 -0.12685546
v 0.16791143 2.3356734E-09 -0.09775416
v 0.18670435 0.0114589175 0.00935678
v 0.18128997 3.633234E-09 0.0043923263
v 0.17843887 0.010877307 -0.10430237
v 0.19252595 -1.5570079E-09 -0.043373007
v 0.20357601 0.009969331 -0.04181429
v 0.03683342 0.044626683 -0.043866232
v 0.070484206 0.04407374 -0.08894122
v 0.11294406 0.03136061 -0.11858637
v 0.17591096 0.031883996 -0.100088544
v 0.19918998 0.03237232 -0.040958993
v 0.17554657 0.037945192 0.00411862
v 0.14136733 0.06385816 -0.024772732
v 0.12775317 0.04195687 0.029008111
v 0.0414315 0.05132643 0.004461962
v 0.08116565 0.0507008 0.030400412
v 0.093963526 0.06879216 0.004268621
v 0.05984065 0.06831253 -0.037245564
v 0.07237344 0.07397538 -0.010643573
v 0.098002 0.06302558 -0.07152465
v 0.11888688 0.06933658 -0.052205198
v 0.12384094 0.05111956 -0.09464579
v 0.15752622 0.05297499 -0.077225015
v 0.16962059 0.052681383 -0.057490796
v 0.08256132 0.013836449 -0.13869107
v 0.074478075 6.1634924E-09 -0.13783103
v 0.078288496 0 -0.116797596
v 0.08207703 0.011701576 -0.11405046
v 0.062293682 3.2871963E-09 -0.10283254
v 0.05915901 0.015086942 -0.16108145
v 0.057226047 4.5198947E-09 -0.15468337
v 0.063839555 0.009360863 -0.10040433
v 0.030773196 3.2871963E-09 -0.099009074
v 0.035746183 0.010693117 -0.16753677
v 0.034539867 4.5198947E-09 -0.16409832
v 0.028610077 0.008678385 -0.09695913
v 0.0034111117 1.6435981E-09 -0.10207054
v 0.0060412884 0.008138924 -0.16085128
v 0.008209047 2.0544977E-09 -0.15701815
v -0.0029865645 0.0077860155 -0.10055159
v -0.0024753332 2.465397E-09 -0.13206828
v -0.00787076 0.00723508 -0.13530941
v 0.07869832 0.028264293 -0.1189965
v 0.057613123 0.02792878 -0.10965307
v 0.03053841 0.020214774 -0.10087811
v -0.00053857325 0.020532347 -0.10163169
v -0.0051013087 0.020828655 -0.13411443
v 0.0120909875 0.02421013 -0.15626542
v 0.07983606 0.032329533 -0.13839906
v 0.046887517 0.039428283 -0.12008627
v 0.0382901 0.04325763 -0.12915745
v 0.02881793 0.03993347 -0.14108099
v 0.03900876 0.026644317 -0.1625659
v 0.06234418 0.03194991 -0.15541421
vt 0.44680294 0.33654332
vt 0.43093306 0.37291646
vt 0.5700813 0.3695476
vt 0.5645196 0.34120458
vt 0.6802484 0.28178966
vt 0.3580622 0.25877148
vt 0.32291767 0.29396972
vt 0.65785724 0.27048534
vt 0.7023045 0.13001499
vt 0.32446015 0.16915661
vt 0.29609904 0.15881371
vt 0.6772861 0.13159737
vt 0.61785674 0.0006661713
vt 0.3687077 0.043812394
vt 0.35401955 0.026658475
vt 0.59845066 0.01677844
vt 0.47184378 -0.035230488
vt 0.4678887 -0.010879457
vt 0.5148623 0.2523631
vt 0.60435826 0.22741263
vt 0.64187497 0.13876042
vt 0.5768193 0.045068055
vt 0.4697559 0.027249336
vt 0.3992832 0.082491904
vt 0.46984378 0.23959531
vt 0.55714065 0.18628487
vt 0.51765287 0.16055378
vt 0.46406493 0.13397604
vt 0.37233394 0.17500058
vt 0.4391168 0.2143493
vt 0.063194394 0.3187971
vt 0.070002675 0.28786874
vt -0.024806289 0.33777404
vt -0.0074071884 0.35794413
vt -0.05476245 0.4359007
vt 0.16425863 0.3476445
vt 0.17527589 0.31577933
vt -0.03637746 0.43025887
vt 0.001268208 0.55521125
vt 0.22535592 0.40788326
vt 0.24830052 0.4025191
vt 0.017866552 0.545263
vt 0.11225948 0.6147945
vt 0.24404246 0.51274604
vt 0.25976026 0.51432514
vt 0.12433988 0.59715307
vt 0.213705 0.591066
vt 0.20392331 0.57294285
vt 0.021594495 0.37422794
vt 0.013774365 0.43934307
vt 0.03539148 0.5233729
vt 0.12311053 0.5702918
vt 0.18961713 0.5502391
vt 0.20929983 0.49194556
vt 0.06946057 0.3555354
vt 0.05959484 0.45448393
vt 0.096609175 0.46146968
vt 0.14367366 0.46516016
vt 0.18672475 0.4136418
vt 0.13287362 0.36936632
vt 0.6129388 0.45429257
vt 0.5735262 0.4320744
vt 0.5616402 0.60176
vt 0.59467435 0.5995346
vt 0.6535562 0.7449847
vt 0.7211001 0.35680345
vt 0.68393946 0.3122345
vt 0.66882247 0.7215824
vt 0.8333053 0.7899955
vt 0.83505654 0.3280034
vt 0.8505236 0.29734173
vt 0.83505654 0.7618834
vt 0.99986565 0.7047571
vt 0.98089445 0.39790726
vt 1.0016627 0.38369238
vt 0.9845983 0.68046314
vt 1.0611702 0.53334767
vt 1.0341997 0.5254132
vt 0.6516881 0.5711761
vt 0.728125 0.6635902
vt 0.8310363 0.7185379
vt 0.95344317 0.6511518
vt 0.98825085 0.5229218
vt 0.93058896 0.42939404
vt 0.85968983 0.5020259
vt 0.82239985 0.38441414
vt 0.66816485 0.47700334
vt 0.73087084 0.4111995
vt 0.76730514 0.46316773
vt 0.7123855 0.551892
vt 0.73417264 0.49938774
vt 0.7854133 0.60986596
vt 0.8223165 0.56429404
vt 0.8412175 0.65272456
vt 0.90167737 0.6036534
vt 0.9214319 0.5605817
vt 0.68332386 0.813877
vt 0.70274734 0.8336296
vt 0.7182783 0.7537173
vt 0.6934904 0.75414425
vt 0.678295 0.68775356
vt 0.62192416 0.85959774
vt 0.6370603 0.88502586
vt 0.6685195 0.7025589
vt 0.5870261 0.6481089
vt 0.56071955 0.86918926
vt 0.55112314 0.88876426
vt 0.5807692 0.6660365
vt 0.5028699 0.67034936
vt 0.49296457 0.829955
vt 0.47748712 0.83740854
vt 0.5065267 0.68651295
vt 0.4557059 0.7515571
vt 0.47230545 0.7612304
vt 0.66504633 0.7652677
vt 0.63655514 0.7307331
vt 0.5847494 0.6920186
vt 0.52535856 0.70183474
vt 0.49867642 0.7624558
vt 0.52440673 0.8138999
vt 0.653028 0.79730624
vt 0.6075082 0.75040597
vt 0.58868724 0.76504683
vt 0.5674627 0.786067
vt 0.57589424 0.8384502
vt 0.6208172 0.8262181
vn -0.5581022 0.24680789 -0.792217
vn -0.5234404 -0.5881216 -0.6165412
vn -0.02507872 -0.48398435 -0.87471724
vn 0.1250224 0.36015013 -0.92447895
vn 0.65675455 -0.39756697 -0.64079154
vn -0.9329206 0.19360247 -0.3036074
vn -0.7565347 -0.58577335 -0.29073146
vn 0.64599806 0.35190943 -0.6773819
vn 0.87538767 -0.48152786 -0.04274704
vn -0.9650927 0.08089179 0.24910346
vn -0.8365898 -0.51553756 0.18530676
vn 0.99317765 0.10737673 -0.045479625
vn 0.60239655 -0.65222245 0.460135
vn -0.6489433 0.034790464 0.760041
vn -0.5550934 -0.54576474 0.62770396
vn 0.7360782 -0.11027313 0.6678537
vn 0.11005431 -0.67415833 0.7303415
vn 0.06374978 -0.090149604 0.9938858
vn 0.08879479 0.77049994 -0.6312253
vn 0.52960515 0.67667913 -0.5114916
vn 0.7302809 0.6830704 0.010227789
vn 0.50060177 0.7223258 0.47711974
vn 0.093596 0.69340605 0.7144423
vn -0.5069255 0.6507661 0.56527
vn -0.33263823 0.83632046 -0.43579802
vn 0.44562155 0.8951377 0.012245109
vn 0.25292742 0.94176364 0.22160564
vn -0.06880788 0.92402864 0.37608057
vn -0.6870079 0.6784917 0.260133
vn -0.5486868 0.8344642 -0.051110838
vn -0.0002526544 -0.14054449 0.99007434
vn 0.10644326 -0.5471025 0.83027023
vn -0.55367553 -0.55112857 0.6242601
vn -0.8260522 0.099679135 0.5547087
vn -0.8777853 -0.4284964 -0.2142047
vn 0.5843624 -0.08208171 0.80733097
vn 0.4338503 -0.5083577 0.7438725
vn -0.9604842 0.20101528 -0.19251709
vn -0.6646318 -0.4563848 -0.59158903
vn 0.8743465 0.030240826 0.48435915
vn 0.74760723 -0.4513945 0.48716146
vn -0.7363751 0.05305487 -0.6744902
vn -0.27882817 -0.65235305 -0.70476264
vn 0.99666446 0.07288399 -0.03671314
vn 0.8556746 -0.51607955 0.03850633
vn -0.231288 -0.10752495 -0.9669252
vn 0.36622003 -0.7277886 -0.5798333
vn 0.6076129 -0.060875 -0.79189706
vn -0.5262949 0.7736605 0.35279343
vn -0.7302605 0.6483617 -0.21528308
vn -0.5408895 0.6597288 -0.52172446
vn -0.13672821 0.76669097 -0.6272881
vn 0.34820947 0.77547604 -0.5266755
vn 0.71412843 0.6991072 0.035633687
vn -0.024251625 0.8169176 0.57624435
vn -0.32262018 0.93454045 -0.15016766
vn -0.08232707 0.98706156 -0.13759233
vn 0.21645026 0.972389 -0.08723007
vn 0.63328415 0.7161551 0.29338175
vn 0.34037423 0.8034638 0.48845816
vn -0.83020407 -0.11387828 0.545704
vn -0.6145806 -0.6091341 0.50124496
vn -0.86114013 -0.5082858 0.009119916
vn -0.9648961 0.18009475 -0.19115838
vn -0.6200182 -0.42458755 -0.6597749
vn -0.26607627 -0.10417309 0.9583065
vn -0.30337238 -0.6063824 0.73502755
vn -0.64899814 0.29235944 -0.7023727
vn -0.025611086 -0.5144825 -0.85711825
vn 0.26538068 -0.0027793052 0.96413964
vn 0.15929721 -0.54219085 0.8250173
vn -0.024784157 0.11247864 -0.993345
vn 0.45043495 -0.6883208 -0.5686147
vn 0.74492586 0.0382413 0.6660503
vn 0.594777 -0.58075243 0.5558479
vn 0.6840796 -0.11090633 -0.7209264
vn 0.69655794 -0.711859 -0.089798845
vn 0.9951499 -0.08991932 -0.039889567
vn -0.7503535 0.6263042 -0.21145374
vn -0.4333248 0.6944064 -0.5744819
vn -0.039461657 0.6017999 -0.7976714
vn 0.58110684 0.5145393 -0.63052696
vn 0.80599105 0.59141564 0.02461484
vn 0.5531939 0.6806085 0.48036295
vn 0.33992562 0.9165158 0.21083008
vn 0.31090847 0.6629489 0.68105406
vn -0.719539 0.52941513 0.44942546
vn -0.2736146 0.5077376 0.8169073
vn 0.1135656 0.9268081 0.35795206
vn -0.40808025 0.882117 -0.23524463
vn -0.2127173 0.967951 0.13350019
vn -0.1549098 0.89532185 -0.41761446
vn 0.12208253 0.9814323 -0.14794055
vn 0.062471468 0.82936776 -0.5551995
vn 0.34289682 0.86143595 -0.37463304
vn 0.50020295 0.8640938 -0.05602599
vn 0.8992474 -0.10253974 -0.42525253
vn 0.77303845 -0.4183878 -0.47682616
vn 0.8667418 -0.42091724 0.26755795
vn 0.8610411 0.06577736 0.5042634
vn 0.333894 -0.28811866 0.89749783
vn 0.49715787 -0.057315998 -0.865765
vn 0.5223472 -0.3870701 -0.7598224
vn 0.32711044 0.16808115 0.929918
vn 0.027780274 -0.24725091 0.9685532
vn 0.005637649 0.023686767 -0.99970347
vn 0.07346252 -0.3808069 -0.92173165
vn 0.018285373 0.10497389 0.99430686
vn -0.50929606 -0.5073711 0.6951202
vn -0.59292567 0.0538521 -0.8034544
vn -0.51637775 -0.4898637 -0.7024156
vn -0.770968 -0.06645045 0.63339764
vn -0.7988258 -0.598678 -0.0588382
vn -0.97961694 -0.047737665 -0.19511995
vn 0.6513434 0.6453112 0.39915583
vn 0.22961631 0.5447463 0.806553
vn -0.0039324476 0.5912573 0.8064734
vn -0.5314491 0.6996347 0.4775701
vn -0.7297401 0.68039125 -0.067433424
vn -0.4369758 0.61047167 -0.66058797
vn 0.640058 0.7179487 -0.27363375
vn 0.11811076 0.8789168 0.4621202
vn -0.0929584 0.98571265 0.14046125
vn -0.26689285 0.9447384 -0.19036177
vn -0.061777584 0.62131125 -0.78112483
vn 0.3249575 0.7095395 -0.625265
g rockGenericGroup01Geo_0
f 3/3/3 2/2/2 1/1/1
f 4/4/4 3/3/3 1/1/1
f 3/3/3 4/4/4 5/5/5
f 6/6/6 1/1/1 2/2/2
f 7/7/7 6/6/6 2/2/2
f 4/4/4 8/8/8 5/5/5
f 5/5/5 8/8/8 9/9/9
f 6/6/6 7/7/7 10/10/10
f 7/7/7 11/11/11 10/10/10
f 8/8/8 12/12/12 9/9/9
f 9/9/9 12/12/12 13/13/13
f 10/10/10 11/11/11 14/14/14
f 11/11/11 15/15/15 14/14/14
f 12/12/12 16/16/16 13/13/13
f 17/17/17 13/13/13 16/16/16
f 15/15/15 17/17/17 18/18/18
f 14/14/14 15/15/15 18/18/18
f 18/18/18 17/17/17 16/16/16
f 4/4/4 19/19/19 8/8/8
f 12/12/12 8/8/8 20/20/20
f 19/19/19 20/20/20 8/8/8
f 16/16/16 12/12/12 21/21/21
f 21/21/21 12/12/12 20/20/20
f 18/18/18 16/16/16 22/22/22
f 22/22/22 16/16/16 21/21/21
f 14/14/14 18/18/18 23/23/23
f 23/23/23 18/18/18 22/22/22
f 10/10/10 14/14/14 24/24/24
f 24/24/24 14/14/14 23/23/23
f 19/19/19 4/4/4 25/25/25
f 4/4/4 1/1/1 25/25/25
f 26/26/26 20/20/20 19/19/19
f 21/21/21 20/20/20 26/26/26
f 26/26/26 19/19/19 25/25/25
f 26/26/26 27/27/27 21/21/21
f 27/27/27 22/22/22 21/21/21
f 27/27/27 26/26/26 25/25/25
f 28/28/28 23/23/23 22/22/22
f 27/27/27 28/28/28 22/22/22
f 28/28/28 24/24/24 23/23/23
f 27/27/27 25/25/25 28/28/28
f 29/29/29 10/10/10 24/24/24
f 29/29/29 24/24/24 28/28/28
f 10/10/10 29/29/29 6/6/6
f 1/1/1 6/6/6 30/30/30
f 25/25/25 1/1/1 30/30/30
f 25/25/25 30/30/30 28/28/28
f 29/29/29 30/30/30 6/6/6
f 30/30/30 29/29/29 28/28/28
f 33/33/33 32/32/32 31/31/31
f 34/34/34 33/33/33 31/31/31
f 33/33/33 34/34/34 35/35/35
f 36/36/36 31/31/31 32/32/32
f 37/37/37 36/36/36 32/32/32
f 34/34/34 38/38/38 35/35/35
f 35/35/35 38/38/38 39/39/39
f 36/36/36 37/37/37 40/40/40
f 37/37/37 41/41/41 40/40/40
f 38/38/38 42/42/42 39/39/39
f 39/39/39 42/42/42 43/43/43
f 40/40/40 41/41/41 44/44/44
f 41/41/41 45/45/45 44/44/44
f 42/42/42 46/46/46 43/43/43
f 47/47/47 43/43/43 46/46/46
f 45/45/45 47/47/47 48/48/48
f 44/44/44 45/45/45 48/48/48
f 48/48/48 47/47/47 46/46/46
f 34/34/34 49/49/49 38/38/38
f 42/42/42 38/38/38 50/50/50
f 49/49/49 50/50/50 38/38/38
f 46/46/46 42/42/42 51/51/51
f 51/51/51 42/42/42 50/50/50
f 48/48/48 46/46/46 52/52/52
f 52/52/52 46/46/46 51/51/51
f 44/44/44 48/48/48 53/53/53
f 53/53/53 48/48/48 52/52/52
f 40/40/40 44/44/44 54/54/54
f 54/54/54 44/44/44 53/53/53
f 49/49/49 34/34/34 55/55/55
f 34/34/34 31/31/31 55/55/55
f 56/56/56 50/50/50 49/49/49
f 51/51/51 50/50/50 56/56/56
f 56/56/56 49/49/49 55/55/55
f 56/56/56 57/57/57 51/51/51
f 57/57/57 52/52/52 51/51/51
f 57/57/57 56/56/56 55/55/55
f 58/58/58 53/53/53 52/52/52
f 57/57/57 58/58/58 52/52/52
f 58/58/58 54/54/54 53/53/53
f 57/57/57 55/55/55 58/58/58
f 59/59/59 40/40/40 54/54/54
f 59/59/59 54/54/54 58/58/58
f 40/40/40 59/59/59 36/36/36
f 31/31/31 36/36/36 60/60/60
f 55/55/55 31/31/31 60/60/60
f 55/55/55 60/60/60 58/58/58
f 59/59/59 60/60/60 36/36/36
f 60/60/60 59/59/59 58/58/58
f 63/63/63 62/62/62 61/61/61
f 64/64/64 63/63/63 61/61/61
f 63/63/63 64/64/64 65/65/65
f 66/66/66 61/61/61 62/62/62
f 67/67/67 66/66/66 62/62/62
f 64/64/64 68/68/68 65/65/65
f 65/65/65 68/68/68 69/69/69
f 66/66/66 67/67/67 70/70/70
f 67/67/67 71/71/71 70/70/70
f 68/68/68 72/72/72 69/69/69
f 69/69/69 72/72/72 73/73/73
f 70/70/70 71/71/71 74/74/74
f 71/71/71 75/75/75 74/74/74
f 72/72/72 76/76/76 73/73/73
f 77/77/77 73/73/73 76/76/76
f 75/75/75 77/77/77 78/78/78
f 74/74/74 75/75/75 78/78/78
f 78/78/78 77/77/77 76/76/76
f 64/64/64 79/79/79 68/68/68
f 72/72/72 68/68/68 80/80/80
f 79/79/79 80/80/80 68/68/68
f 76/76/76 72/72/72 81/81/81
f 81/81/81 72/72/72 80/80/80
f 78/78/78 76/76/76 82/82/82
f 82/82/82 76/76/76 81/81/81
f 74/74/74 78/78/78 83/83/83
f 83/83/83 78/78/78 82/82/82
f 70/70/70 74/74/74 84/84/84
f 84/84/84 74/74/74 83/83/83
f 85/85/85 84/84/84 83/83/83
f 86/86/86 70/70/70 84/84/84
f 86/86/86 84/84/84 85/85/85
f 70/70/70 86/86/86 66/66/66
f 79/79/79 64/64/64 87/87/87
f 64/64/64 61/61/61 87/87/87
f 61/61/61 66/66/66 88/88/88
f 86/86/86 88/88/88 66/66/66
f 87/87/87 61/61/61 88/88/88
f 89/89/89 88/88/88 86/86/86
f 89/89/89 86/86/86 85/85/85
f 88/88/88 89/89/89 87/87/87
f 79/79/79 87/87/87 90/90/90
f 80/80/80 79/79/79 90/90/90
f 89/89/89 91/91/91 87/87/87
f 87/87/87 91/91/91 90/90/90
f 91/91/91 89/89/89 85/85/85
f 92/92/92 80/80/80 90/90/90
f 92/92/92 90/90/90 91/91/91
f 81/81/81 80/80/80 92/92/92
f 93/93/93 92/92/92 91/91/91
f 93/93/93 91/91/91 85/85/85
f 94/94/94 81/81/81 92/92/92
f 92/92/92 93/93/93 94/94/94
f 82/82/82 81/81/81 94/94/94
f 93/93/93 95/95/95 94/94/94
f 93/93/93 85/85/85 95/95/95
f 95/95/95 82/82/82 94/94/94
f 85/85/85 96/96/96 95/95/95
f 82/82/82 95/95/95 96/96/96
f 96/96/96 85/85/85 83/83/83
f 83/83/83 82/82/82 96/96/96
f 99/99/99 98/98/98 97/97/97
f 100/100/100 99/99/99 97/97/97
f 99/99/99 100/100/100 101/101/101
f 102/102/102 97/97/97 98/98/98
f 103/103/103 102/102/102 98/98/98
f 100/100/100 104/104/104 101/101/101
f 101/101/101 104/104/104 105/105/105
f 102/102/102 103/103/103 106/106/106
f 103/103/103 107/107/107 106/106/106
f 104/104/104 108/108/108 105/105/105
f 105/105/105 108/108/108 109/109/109
f 106/106/106 107/107/107 110/110/110
f 107/107/107 111/111/111 110/110/110
f 108/108/108 112/112/112 109/109/109
f 113/113/113 109/109/109 112/112/112
f 111/111/111 113/113/113 114/114/114
f 110/110/110 111/111/111 114/114/114
f 114/114/114 113/113/113 112/112/112
f 100/100/100 115/115/115 104/104/104
f 108/108/108 104/104/104 116/116/116
f 115/115/115 116/116/116 104/104/104
f 112/112/112 108/108/108 117/117/117
f 117/117/117 108/108/108 116/116/116
f 114/114/114 112/112/112 118/118/118
f 118/118/118 112/112/112 117/117/117
f 110/110/110 114/114/114 119/119/119
f 119/119/119 114/114/114 118/118/118
f 106/106/106 110/110/110 120/120/120
f 120/120/120 110/110/110 119/119/119
f 115/115/115 100/100/100 121/121/121
f 100/100/100 97/97/97 121/121/121
f 122/122/122 116/116/116 115/115/115
f 117/117/117 116/116/116 122/122/122
f 122/122/122 115/115/115 121/121/121
f 122/122/122 123/123/123 117/117/117
f 123/123/123 118/118/118 117/117/117
f 123/123/123 122/122/122 121/121/121
f 124/124/124 119/119/119 118/118/118
f 123/123/123 124/124/124 118/118/118
f 124/124/124 120/120/120 119/119/119
f 123/123/123 121/121/121 124/124/124
f 125/125/125 106/106/106 120/120/120
f 125/125/125 120/120/120 124/124/124
f 106/106/106 125/125/125 102/102/102
f 97/97/97 102/102/102 126/126/126
f 121/121/121 97/97/97 126/126/126
f 121/121/121 126/126/126 124/124/124
f 125/125/125 126/126/126 102/102/102
f 126/126/126 125/125/125 124/124/124
