g treeAshSaplingTrunkGeo
v 0.25547832 1.3433343 0.023386914
v 0.3914076 1.8422902 0.055100825
v 0.3970969 1.8377098 0.062328104
v 0.26552078 1.3425437 0.040070157
v 0.15076198 0.70400506 -0.023458855
v 0.4072236 1.8366203 0.060970664
v 0.16891676 0.7067386 0.0066300174
v 0.06074543 0.3813234 0.014354208
v 0.28468472 1.3390157 0.039750125
v 0.41166127 1.840112 0.05238567
v 0.08086654 0.38275316 0.048495635
v -0.030104948 0.13868275 -0.023500936
v 0.20385678 0.70209104 0.006616041
v 0.2938063 1.3362782 0.022746857
v 0.40597188 1.8446922 0.04515837
v -0.005403932 0.13953647 0.018858973
v -0.04971791 0 -9.806564E-09
v 0.120392375 0.38032213 0.048488315
v 0.22064206 0.6947099 -0.023486802
v 0.2837639 1.337069 0.006063588
v 0.39584517 1.8457812 0.046515897
v -0.02276324 0 0.046686873
v -0.07327654 -0.7217895 -9.970145E-09
v -0.03454255 -0.7217895 0.067089245
v 0.043570418 0.13808498 0.018854609
v 0.031146113 0 0.046686873
v 0.042925432 -0.7217895 0.067089245
v 0.13979714 0.37646142 0.014339594
v 0.20248729 0.69197655 -0.053575657
v 0.2645999 1.3405969 0.0063835774
v 0.3914076 1.8422902 0.055100825
v 0.25547832 1.3433343 0.023386914
v 0.16754729 0.69662404 -0.05356168
v 0.15076198 0.70400506 -0.023458855
v 0.06784374 0.13577981 -0.023509657
v 0.0581008 0 -1.7734448E-09
v 0.081659414 -0.7217895 1.5734766E-09
v 0.11967605 0.3750316 -0.019801823
v 0.0801502 0.37746254 -0.019794507
v 0.06074543 0.3813234 0.014354208
v 0.043142736 0.13492613 -0.065869555
v 0.03114613 0 -0.04668686
v 0.042925444 -0.7217895 -0.06708922
v -0.0058316207 0.13637759 -0.0658652
v -0.030104948 0.13868275 -0.023500936
v -0.022763217 0 -0.046686877
v -0.03454255 -0.7217895 -0.067089245
v -0.04971791 0 -9.806564E-09
v -0.07327654 -0.7217895 -9.970145E-09
v 0.088853374 0.25953156 -0.03042041
v -0.008297369 0.51806146 -0.12299458
v 0.05647801 0.23573034 -0.018148808
v 0.018065523 0.52824825 -0.13478735
v 0.09837377 0.3001131 -0.012217035
v -0.0705025 0.9317753 -0.18076979
v 0.03812056 0.54301304 -0.11696424
v 0.07551861 0.31689328 0.018258717
v -0.04972736 0.9310409 -0.18729025
v -0.1376542 1.4358897 -0.3054762
v -0.13062301 1.4389476 -0.30987516
v -0.033701494 0.9350036 -0.17307308
v -0.124187216 1.443173 -0.30553198
v 0.031812154 0.54759073 -0.087347984
v 0.043143257 0.29309168 0.03053037
v -0.038450282 0.93969935 -0.1523355
v -0.1247837 1.4443423 -0.29678994
v 0.005449251 0.53740364 -0.075555205
v 0.033622827 0.2525103 0.012326684
v -0.059225224 0.9404332 -0.14581512
v -0.13181509 1.4412829 -0.29239127
v -0.014605669 0.52263933 -0.09337842
v 0.05647801 0.23573034 -0.018148808
v -0.008297369 0.51806146 -0.12299458
v -0.07525099 0.936472 -0.16003254
v -0.13825099 1.4370573 -0.29673463
v -0.0705025 0.9317753 -0.18076979
v -0.1376542 1.4358897 -0.3054762
v 0.0024375217 0.48925322 -0.09213183
v -0.25097486 0.74222535 0.060445886
v 0.0016362085 0.47425163 -0.07396589
v -0.2485938 0.75252014 0.04293333
v 0.02245326 0.5006603 -0.097123094
v -0.36723223 1.0299394 0.16391389
v -0.2308412 0.76183254 0.03887788
v 0.04166767 0.49706703 -0.0839484
v -0.36573002 1.0413798 0.1550511
v -0.52455693 1.3739554 0.46313068
v -0.5247524 1.3775735 0.45847067
v -0.35344592 1.0491756 0.15525149
v -0.52046376 1.3815451 0.45763555
v -0.21547005 0.76084965 0.052334484
v 0.040866528 0.48206577 -0.06578257
v -0.34266433 1.0455291 0.164316
v -0.5159803 1.3818964 0.46146074
v -0.21785127 0.7505551 0.06984662
v 0.020850617 0.4706581 -0.060791247
v -0.34416646 1.0340893 0.17317875
v -0.51578593 1.3782763 0.4661208
v -0.23560376 0.74124265 0.073902294
v 0.0016362085 0.47425163 -0.07396589
v -0.25097486 0.74222535 0.060445886
v -0.3564496 1.0262935 0.17297922
v -0.52007455 1.3743049 0.46695614
v -0.36723223 1.0299394 0.16391389
v -0.52455693 1.3739554 0.46313068
vt 0 1.1879464
vt 0 4.0938873
vt 0.17435461 4.0845976
vt 0.17319265 1.1835973
vt 0 -0.23792553
vt 0.33488306 4.0849395
vt 0.17902559 -0.2615431
vt 0 -1.0082897
vt 0.3413335 1.1706153
vt 0.49231026 4.0933676
vt 0.15760332 -1.0079566
vt 0 -1.4783382
vt 0.339596 -0.28403783
vt 0.5061056 1.1576899
vt 0.65070426 4.101307
vt 0.16542551 -1.5023224
vt 0 -1.7039142
vt 0.32311866 -1.0088462
vt 0.50220704 -0.28911534
vt 0.6667625 1.1577488
vt 0.8129156 4.1013336
vt 0.15660217 -1.7778103
vt 0 -2.422492
vt 0.16483963 -2.567995
vt 0.33894837 -1.5181565
vt 0.31977206 -1.8056128
vt 0.3325312 -2.6429904
vt 0.486741 -1.0193127
vt 0.664078 -0.27424213
vt 0.8322427 1.1708479
vt 1 4.0950146
vt 1 1.1882823
vt 0.8276484 -0.25318745
vt 0.99999994 -0.24211037
vt 0.51286936 -1.5248103
vt 0.48730883 -1.8025129
vt 0.5002378 -2.6550088
vt 0.6526454 -1.0280113
vt 0.82358074 -1.0225955
vt 1 -1.0017126
vt 0.67894095 -1.5270658
vt 0.65899324 -1.7855308
vt 0.664669 -2.6155121
vt 0.8372964 -1.5140579
vt 1 -1.4730926
vt 0.83132446 -1.7504485
vt 0.82615584 -2.526967
vt 0.99999994 -1.6793036
vt 1 -2.3795197
vt 4.8287272 0.1138742
vt 5 1.0124629
vt 5 0.15246153
vt 4.833911 1.0044836
vt 4.667839 0.06883621
vt 5 2.5313568
vt 4.668184 1.0073111
vt 4.501763 0.04817152
vt 4.8313923 2.5169916
vt 5 4.47776
vt 4.828738 4.486971
vt 4.664456 2.5083952
vt 4.6625466 4.4931126
vt 4.495178 1.0120704
vt 4.335796 0.06769061
vt 4.4969187 2.5111809
vt 4.4947405 4.4887714
vt 4.3294635 1.012294
vt 4.1706877 0.1080327
vt 4.330664 2.521402
vt 4.33499 4.477791
vt 4.1659346 1.0101428
vt 4 0.14232159
vt 4 1.0144293
vt 4.1632314 2.530023
vt 4.168609 4.4714518
vt 3.9999998 2.5312054
vt 3.9999998 4.477186
vt -1.1734335 3.1058502
vt -0.99999994 5.2296658
vt -0.99999994 3.1065521
vt -1.1601421 5.1788855
vt -1.3385739 3.0866547
vt -0.99999994 6.944543
vt -1.3309045 5.155183
vt -1.502589 3.065463
vt -1.170531 6.9504533
vt -0.99999994 10.570901
vt -1.1668124 10.575134
vt -1.3422561 6.942776
vt -1.3338525 10.573495
vt -1.5010988 5.176596
vt -1.6680155 3.062397
vt -1.50348 6.9258056
vt -1.4987777 10.566711
vt -1.663344 5.223762
vt -1.8311285 3.08149
vt -1.6696267 6.9178457
vt -1.6651567 10.56125
vt -1.8374382 5.248068
vt -2 3.1059952
vt -2 5.2294035
vt -1.839052 6.9259043
vt -1.8332822 10.562809
vt -2 6.9458685
vt -2 10.570752
vn -0.9811551 0.18882127 0.04100401
vn -0.96321946 0.26510662 -0.043895543
vn -0.44550917 0.07765403 0.8919033
vn -0.4758114 0.04446261 0.87842274
vn -0.9765257 0.21121861 -0.042239897
vn 0.5923865 -0.17905521 0.7855045
vn -0.49162546 0.11513799 0.86316144
vn -0.95116097 0.30763975 0.025508976
vn 0.4791224 -0.12294893 0.8690945
vn 0.956606 -0.21098581 -0.20097275
vn -0.46697342 0.1456393 0.8721955
vn -0.96202403 0.2667829 -0.057763506
vn 0.5195575 -0.07634677 0.8510178
vn 0.9890258 -0.14726752 -0.011840497
vn 0.41079217 -0.029020937 -0.911267
vn -0.5453862 0.16009529 0.8227535
vn -0.9988507 0.04737009 0.007309571
vn 0.47537446 -0.1174605 0.87190723
vn 0.98591936 -0.16260633 -0.039013945
vn 0.47150826 0.004786491 -0.88184863
vn -0.42554593 0.18074596 -0.88670266
vn -0.49935815 0.05721155 0.8645046
vn -0.9994678 0.03262183 -1.1946503E-07
vn -0.49973398 0.032621827 0.8655644
vn 0.4758069 -0.10674938 0.87304777
vn 0.4930768 0.045958653 0.86877096
vn 0.4997339 0.032621834 0.8655645
vn 0.96225685 -0.26688322 0.05324589
vn 0.48502687 -0.08107581 -0.87073284
vn -0.50653815 0.16772689 -0.8457463
vn -0.96321946 0.26510662 -0.043895543
vn -0.9811551 0.18882127 0.04100401
vn -0.45931777 0.10047522 -0.8825712
vn -0.9765257 0.21121861 -0.042239897
vn 0.97755164 -0.20631772 -0.042728342
vn 0.9997694 0.020223606 0.00723229
vn 0.9994678 0.032621816 1.6725105E-07
vn 0.509879 -0.12599976 -0.85096866
vn -0.4941554 0.19359413 -0.8475445
vn -0.95116097 0.30763975 0.025508976
vn 0.43749252 -0.03510075 -0.89853674
vn 0.4995449 0.006060312 -0.8662668
vn 0.49973392 0.03262181 -0.8655644
vn -0.49753353 0.17320205 -0.8499773
vn -0.96202403 0.2667829 -0.057763506
vn -0.5066937 0.02196408 -0.8618463
vn -0.4997337 0.032621823 -0.8655646
vn -0.9988507 0.04737009 0.007309571
vn -0.9994678 0.03262183 -1.1946503E-07
vn 0.14566144 -0.32237786 -0.93533695
vn -0.6661036 -0.30651793 -0.67996526
vn -0.6418975 -0.38623926 -0.66240984
vn 0.24644418 -0.17424744 -0.95336413
vn 0.9508057 0.11699065 -0.28684786
vn -0.7650874 -0.22190645 -0.60448235
vn 0.9447171 0.133814 -0.2993381
vn 0.5545808 0.43423486 0.70984524
vn 0.18584098 -0.14122646 -0.9723776
vn -0.7060097 -0.25743672 -0.659755
vn 0.2952232 -0.17951976 -0.9384114
vn 0.93970305 0.107206896 -0.32475355
vn 0.9390787 0.07971198 -0.33433083
vn 0.69776785 0.31788018 0.6419284
vn -0.6257977 0.21483873 0.74981433
vn 0.7324949 0.2622901 0.62821573
vn 0.8077686 0.28618413 0.51537234
vn -0.33275697 0.21174487 0.91893244
vn -0.9750258 -0.21047412 -0.07088929
vn -0.20856458 0.18377312 0.9605875
vn -0.09180347 0.26784757 0.95907766
vn -0.9781883 -0.12362343 0.16692811
vn -0.6418975 -0.38623926 -0.66240984
vn -0.6661036 -0.30651793 -0.67996526
vn -0.9386314 -0.056738447 0.3402231
vn -0.9327408 -0.019450676 0.36002257
vn -0.7650874 -0.22190645 -0.60448235
vn -0.7060097 -0.25743672 -0.659755
vn -0.605789 -0.17832546 -0.77538353
vn -0.8061911 -0.58613575 0.08062756
vn -0.68898165 -0.71372586 0.1260935
vn -0.66831493 -0.13841957 -0.7308865
vn 0.19657144 0.5958115 -0.7786966
vn -0.8920922 -0.44330943 0.08745451
vn 0.08659592 0.45348582 -0.8870467
vn 0.7369116 0.6697741 0.091454744
vn -0.6928387 0.11939281 -0.7111398
vn -0.84536326 -0.51374114 0.14639306
vn -0.7602312 0.19845326 -0.61859894
vn 0.1292521 0.5702794 -0.8112184
vn 0.1425414 0.7042258 -0.69551986
vn 0.78011894 0.6199939 -0.08379736
vn 0.62300193 0.22315902 0.74971235
vn 0.84969664 0.4947196 -0.18239552
vn 0.8662786 0.4963179 -0.056833208
vn 0.6063275 0.105693676 0.78815985
vn 0.02628538 -0.4258666 0.90440404
vn 0.729621 -0.048319537 0.68214256
vn 0.76426333 -0.1522879 0.6266658
vn -0.18826377 -0.50337017 0.843312
vn -0.68898165 -0.71372586 0.1260935
vn -0.8061911 -0.58613575 0.08062756
vn -0.18320212 -0.5230552 0.83237624
vn -0.04652142 -0.6569921 0.7524607
vn -0.8920922 -0.44330943 0.08745451
vn -0.84536326 -0.51374114 0.14639306
g treeAshSaplingTrunkGeo_0
f 3/3/3 2/2/2 1/1/1
f 4/4/4 3/3/3 1/1/1
f 4/4/4 1/1/1 5/5/5
f 6/6/6 3/3/3 4/4/4
f 7/7/7 4/4/4 5/5/5
f 7/7/7 5/5/5 8/8/8
f 9/9/9 6/6/6 4/4/4
f 9/9/9 4/4/4 7/7/7
f 10/10/10 6/6/6 9/9/9
f 11/11/11 7/7/7 8/8/8
f 11/11/11 8/8/8 12/12/12
f 13/13/13 9/9/9 7/7/7
f 13/13/13 7/7/7 11/11/11
f 14/14/14 10/10/10 9/9/9
f 14/14/14 9/9/9 13/13/13
f 15/15/15 10/10/10 14/14/14
f 16/16/16 11/11/11 12/12/12
f 16/16/16 12/12/12 17/17/17
f 18/18/18 13/13/13 11/11/11
f 18/18/18 11/11/11 16/16/16
f 19/19/19 14/14/14 13/13/13
f 19/19/19 13/13/13 18/18/18
f 20/20/20 15/15/15 14/14/14
f 20/20/20 14/14/14 19/19/19
f 21/21/21 15/15/15 20/20/20
f 22/22/22 16/16/16 17/17/17
f 17/17/17 23/23/23 22/22/22
f 23/23/23 24/24/24 22/22/22
f 25/25/25 18/18/18 16/16/16
f 25/25/25 16/16/16 22/22/22
f 22/22/22 24/24/24 26/26/26
f 26/26/26 25/25/25 22/22/22
f 24/24/24 27/27/27 26/26/26
f 28/28/28 19/19/19 18/18/18
f 28/28/28 18/18/18 25/25/25
f 29/29/29 20/20/20 19/19/19
f 29/29/29 19/19/19 28/28/28
f 30/30/30 21/21/21 20/20/20
f 30/30/30 20/20/20 29/29/29
f 31/31/31 21/21/21 30/30/30
f 32/32/32 31/31/31 30/30/30
f 32/32/32 30/30/30 33/33/33
f 33/33/33 30/30/30 29/29/29
f 34/34/34 32/32/32 33/33/33
f 35/35/35 25/25/25 26/26/26
f 35/35/35 28/28/28 25/25/25
f 26/26/26 27/27/27 36/36/36
f 36/36/36 35/35/35 26/26/26
f 27/27/27 37/37/37 36/36/36
f 38/38/38 29/29/29 28/28/28
f 33/33/33 29/29/29 38/38/38
f 38/38/38 28/28/28 35/35/35
f 34/34/34 33/33/33 39/39/39
f 39/39/39 33/33/33 38/38/38
f 40/40/40 34/34/34 39/39/39
f 41/41/41 38/38/38 35/35/35
f 41/41/41 35/35/35 36/36/36
f 39/39/39 38/38/38 41/41/41
f 36/36/36 37/37/37 42/42/42
f 42/42/42 41/41/41 36/36/36
f 37/37/37 43/43/43 42/42/42
f 40/40/40 39/39/39 44/44/44
f 44/44/44 39/39/39 41/41/41
f 44/44/44 41/41/41 42/42/42
f 45/45/45 40/40/40 44/44/44
f 42/42/42 43/43/43 46/46/46
f 46/46/46 44/44/44 42/42/42
f 45/45/45 44/44/44 46/46/46
f 43/43/43 47/47/47 46/46/46
f 48/48/48 45/45/45 46/46/46
f 46/46/46 47/47/47 48/48/48
f 47/47/47 49/49/49 48/48/48
f 52/52/52 51/51/51 50/50/50
f 51/51/51 53/53/53 50/50/50
f 50/50/50 53/53/53 54/54/54
f 51/51/51 55/55/55 53/53/53
f 53/53/53 56/56/56 54/54/54
f 54/54/54 56/56/56 57/57/57
f 55/55/55 58/58/58 53/53/53
f 53/53/53 58/58/58 56/56/56
f 55/55/55 59/59/59 58/58/58
f 59/59/59 60/60/60 58/58/58
f 58/58/58 60/60/60 61/61/61
f 58/58/58 61/61/61 56/56/56
f 60/60/60 62/62/62 61/61/61
f 56/56/56 63/63/63 57/57/57
f 56/56/56 61/61/61 63/63/63
f 57/57/57 63/63/63 64/64/64
f 61/61/61 62/62/62 65/65/65
f 61/61/61 65/65/65 63/63/63
f 62/62/62 66/66/66 65/65/65
f 63/63/63 67/67/67 64/64/64
f 63/63/63 65/65/65 67/67/67
f 64/64/64 67/67/67 68/68/68
f 65/65/65 66/66/66 69/69/69
f 65/65/65 69/69/69 67/67/67
f 66/66/66 70/70/70 69/69/69
f 67/67/67 71/71/71 68/68/68
f 67/67/67 69/69/69 71/71/71
f 68/68/68 71/71/71 72/72/72
f 71/71/71 73/73/73 72/72/72
f 69/69/69 70/70/70 74/74/74
f 69/69/69 74/74/74 71/71/71
f 71/71/71 74/74/74 73/73/73
f 70/70/70 75/75/75 74/74/74
f 74/74/74 76/76/76 73/73/73
f 74/74/74 75/75/75 76/76/76
f 75/75/75 77/77/77 76/76/76
f 80/80/80 79/79/79 78/78/78
f 79/79/79 81/81/81 78/78/78
f 78/78/78 81/81/81 82/82/82
f 79/79/79 83/83/83 81/81/81
f 81/81/81 84/84/84 82/82/82
f 82/82/82 84/84/84 85/85/85
f 83/83/83 86/86/86 81/81/81
f 81/81/81 86/86/86 84/84/84
f 83/83/83 87/87/87 86/86/86
f 87/87/87 88/88/88 86/86/86
f 86/86/86 88/88/88 89/89/89
f 86/86/86 89/89/89 84/84/84
f 88/88/88 90/90/90 89/89/89
f 84/84/84 91/91/91 85/85/85
f 84/84/84 89/89/89 91/91/91
f 85/85/85 91/91/91 92/92/92
f 89/89/89 90/90/90 93/93/93
f 89/89/89 93/93/93 91/91/91
f 90/90/90 94/94/94 93/93/93
f 91/91/91 95/95/95 92/92/92
f 91/91/91 93/93/93 95/95/95
f 92/92/92 95/95/95 96/96/96
f 93/93/93 94/94/94 97/97/97
f 93/93/93 97/97/97 95/95/95
f 94/94/94 98/98/98 97/97/97
f 95/95/95 99/99/99 96/96/96
f 95/95/95 97/97/97 99/99/99
f 96/96/96 99/99/99 100/100/100
f 99/99/99 101/101/101 100/100/100
f 97/97/97 98/98/98 102/102/102
f 97/97/97 102/102/102 99/99/99
f 99/99/99 102/102/102 101/101/101
f 98/98/98 103/103/103 102/102/102
f 102/102/102 104/104/104 101/101/101
f 102/102/102 103/103/103 104/104/104
f 103/103/103 105/105/105 104/104/104
